<svg width="32" height="32" viewBox="0 0 32 32" fill="none" xmlns="http://www.w3.org/2000/svg">
<mask id="mask0_88_396" style="mask-type:alpha" maskUnits="userSpaceOnUse" x="0" y="0" width="32" height="32">
<rect width="32" height="32" fill="#D9D9D9"/>
</mask>
<g mask="url(#mask0_88_396)">
<path d="M7.07684 27.3337C6.40328 27.3337 5.83317 27.1003 5.3665 26.6337C4.89984 26.167 4.6665 25.5969 4.6665 24.9233V7.07735C4.6665 6.40379 4.89984 5.83368 5.3665 5.36701C5.83317 4.90035 6.40328 4.66701 7.07684 4.66701H8.92284V2.87201C8.92284 2.58157 9.02139 2.33801 9.2185 2.14135C9.41539 1.9449 9.65939 1.84668 9.9505 1.84668C10.2416 1.84668 10.4849 1.9449 10.6805 2.14135C10.8763 2.33801 10.9742 2.58157 10.9742 2.87201V4.66701H21.0768V2.84668C21.0768 2.56335 21.1727 2.32579 21.3645 2.13401C21.5561 1.94246 21.7936 1.84668 22.0772 1.84668C22.3607 1.84668 22.5982 1.94246 22.7895 2.13401C22.9811 2.32579 23.0768 2.56335 23.0768 2.84668V4.66701H24.9228C25.5964 4.66701 26.1665 4.90035 26.6332 5.36701C27.0998 5.83368 27.3332 6.40379 27.3332 7.07735V24.9233C27.3332 25.5969 27.0998 26.167 26.6332 26.6337C26.1665 27.1003 25.5964 27.3337 24.9228 27.3337H7.07684ZM25.3332 24.9233V7.07735C25.3332 6.97468 25.2904 6.88068 25.2048 6.79535C25.1195 6.70979 25.0255 6.66701 24.9228 6.66701H7.07684C6.97417 6.66701 6.88017 6.70979 6.79484 6.79535C6.70928 6.88068 6.6665 6.97468 6.6665 7.07735V24.9233C6.6665 25.026 6.70928 25.12 6.79484 25.2053C6.88017 25.2909 6.97417 25.3337 7.07684 25.3337H24.9228C25.0255 25.3337 25.1195 25.2909 25.2048 25.2053C25.2904 25.12 25.3332 25.026 25.3332 24.9233ZM11.6922 14.521V10.1287C11.6922 9.97135 11.6332 9.83368 11.5152 9.71568C11.3972 9.59768 11.2596 9.53868 11.1025 9.53868C10.9452 9.53868 10.8075 9.59768 10.6895 9.71568C10.5717 9.83368 10.5128 9.97135 10.5128 10.1287V14.767C10.5128 15.3328 10.6995 15.8353 11.0728 16.2747C11.4464 16.714 11.9093 17.0029 12.4615 17.1413V21.667C12.4615 21.8966 12.5365 22.0865 12.6865 22.2367C12.8365 22.3869 13.0262 22.462 13.2555 22.462C13.4851 22.462 13.6751 22.3869 13.8255 22.2367C13.9759 22.0865 14.0512 21.8966 14.0512 21.667V17.1413C14.6032 17.0029 15.0659 16.714 15.4395 16.2747C15.8131 15.8353 15.9998 15.3328 15.9998 14.767V10.1287C15.9998 9.97135 15.9408 9.83368 15.8228 9.71568C15.7048 9.59768 15.5673 9.53868 15.4102 9.53868C15.2528 9.53868 15.1152 9.59768 14.9972 9.71568C14.8794 9.83368 14.8205 9.97135 14.8205 10.1287V14.521H13.8462V10.1287C13.8462 9.97135 13.7872 9.83368 13.6692 9.71568C13.5512 9.59768 13.4135 9.53868 13.2562 9.53868C13.0991 9.53868 12.9615 9.59768 12.8435 9.71568C12.7255 9.83368 12.6665 9.97135 12.6665 10.1287V14.521H11.6922ZM19.8972 17.1287V21.667C19.8972 21.8966 19.9722 22.0865 20.1222 22.2367C20.2724 22.3869 20.4622 22.462 20.6915 22.462C20.9211 22.462 21.1111 22.3869 21.2615 22.2367C21.4117 22.0865 21.4868 21.8966 21.4868 21.667V10.2157C21.4868 9.9999 21.4143 9.83312 21.2692 9.71535C21.1238 9.59757 20.9349 9.53868 20.7025 9.53868C20.4387 9.53868 20.1497 9.61224 19.8355 9.75935C19.5211 9.90646 19.2212 10.1312 18.9358 10.4337C18.5994 10.7823 18.3422 11.1772 18.1642 11.6183C17.9862 12.0592 17.8972 12.5361 17.8972 13.049V15.9233C17.8972 16.2649 18.0127 16.5511 18.2438 16.782C18.4747 17.0131 18.7609 17.1287 19.1025 17.1287H19.8972ZM6.6665 24.9233V25.3337V6.66701V24.9233Z" fill="white"/>
</g>
</svg>
