<svg width="32" height="32" viewBox="0 0 32 32" fill="none" xmlns="http://www.w3.org/2000/svg">
<mask id="mask0_88_399" style="mask-type:alpha" maskUnits="userSpaceOnUse" x="0" y="0" width="32" height="32">
<rect width="32" height="32" fill="#D9D9D9"/>
</mask>
<g mask="url(#mask0_88_399)">
<path d="M10.0002 20.256H22.0002V21.4613C22.0002 21.6902 22.0754 21.8799 22.2258 22.0303C22.3763 22.1808 22.5661 22.256 22.7952 22.256C23.0241 22.256 23.2137 22.1808 23.3642 22.0303C23.5146 21.8799 23.5898 21.6902 23.5898 21.4613V17.1073C23.5898 16.4749 23.4044 15.9253 23.0335 15.4587C22.6626 14.992 22.1814 14.6835 21.5898 14.533V12.5637C21.5898 11.8903 21.3565 11.3203 20.8898 10.8537C20.4232 10.387 19.8531 10.1537 19.1795 10.1537H12.8208C12.1473 10.1537 11.5772 10.387 11.1105 10.8537C10.6438 11.3203 10.4105 11.8903 10.4105 12.5637V14.533C9.81894 14.6835 9.33772 14.992 8.96683 15.4587C8.59594 15.9253 8.4105 16.4749 8.4105 17.1073V21.4613C8.4105 21.6902 8.48572 21.8799 8.63616 22.0303C8.78661 22.1808 8.97627 22.256 9.20516 22.256C9.43427 22.256 9.62405 22.1808 9.7745 22.0303C9.92494 21.8799 10.0002 21.6902 10.0002 21.4613V20.256ZM10.0002 18.6663V17.1073C10.0002 16.7962 10.1071 16.5339 10.3208 16.3203C10.5344 16.1066 10.7967 15.9997 11.1078 15.9997H20.8925C21.2036 15.9997 21.4659 16.1066 21.6795 16.3203C21.8933 16.5339 22.0002 16.7962 22.0002 17.1073V18.6663H10.0002ZM12.0002 14.41V12.1537C12.0002 12.0339 12.0386 11.9356 12.1155 11.8587C12.1924 11.7818 12.2907 11.7433 12.4105 11.7433H19.5898C19.7096 11.7433 19.8079 11.7818 19.8848 11.8587C19.9617 11.9356 20.0002 12.0339 20.0002 12.1537V14.41H12.0002ZM5.74383 28.6663C5.07027 28.6663 4.50016 28.433 4.0335 27.9663C3.56683 27.4997 3.3335 26.9296 3.3335 26.256V5.74334C3.3335 5.06979 3.56683 4.49967 4.0335 4.03301C4.50016 3.56634 5.07027 3.33301 5.74383 3.33301H26.2565C26.9301 3.33301 27.5002 3.56634 27.9668 4.03301C28.4335 4.49967 28.6668 5.06979 28.6668 5.74334V26.256C28.6668 26.9296 28.4335 27.4997 27.9668 27.9663C27.5002 28.433 26.9301 28.6663 26.2565 28.6663H5.74383ZM5.74383 26.6663H26.2565C26.3592 26.6663 26.4532 26.6236 26.5385 26.538C26.6241 26.4527 26.6668 26.3587 26.6668 26.256V5.74334C26.6668 5.64067 26.6241 5.54667 26.5385 5.46134C26.4532 5.37578 26.3592 5.33301 26.2565 5.33301H5.74383C5.64116 5.33301 5.54716 5.37578 5.46183 5.46134C5.37627 5.54667 5.3335 5.64067 5.3335 5.74334V26.256C5.3335 26.3587 5.37627 26.4527 5.46183 26.538C5.54716 26.6236 5.64116 26.6663 5.74383 26.6663Z" fill="white"/>
</g>
</svg>
