<svg width="60" height="60" viewBox="0 0 60 60" fill="none" xmlns="http://www.w3.org/2000/svg">
<mask id="mask0_48_636" style="mask-type:alpha" maskUnits="userSpaceOnUse" x="0" y="0" width="60" height="60">
<rect width="60" height="60" fill="#D9D9D9"/>
</mask>
<g mask="url(#mask0_48_636)">
<path d="M5 47.5005V32.5005C5 31.3755 5.22917 30.3547 5.6875 29.438C6.14583 28.5213 6.75 27.7088 7.5 27.0005V20.0005C7.5 17.9172 8.22917 16.1463 9.6875 14.688C11.1458 13.2297 12.9167 12.5005 15 12.5005H25C25.9583 12.5005 26.8542 12.6776 27.6875 13.0317C28.5208 13.3859 29.2917 13.8755 30 14.5005C30.7083 13.8755 31.4792 13.3859 32.3125 13.0317C33.1458 12.6776 34.0417 12.5005 35 12.5005H45C47.0833 12.5005 48.8542 13.2297 50.3125 14.688C51.7708 16.1463 52.5 17.9172 52.5 20.0005V27.0005C53.25 27.7088 53.8542 28.5213 54.3125 29.438C54.7708 30.3547 55 31.3755 55 32.5005V47.5005H50V42.5005H10V47.5005H5ZM32.5 25.0005H47.5V20.0005C47.5 19.2922 47.2604 18.6984 46.7812 18.2192C46.3021 17.7401 45.7083 17.5005 45 17.5005H35C34.2917 17.5005 33.6979 17.7401 33.2187 18.2192C32.7396 18.6984 32.5 19.2922 32.5 20.0005V25.0005ZM12.5 25.0005H27.5V20.0005C27.5 19.2922 27.2604 18.6984 26.7812 18.2192C26.3021 17.7401 25.7083 17.5005 25 17.5005H15C14.2917 17.5005 13.6979 17.7401 13.2187 18.2192C12.7396 18.6984 12.5 19.2922 12.5 20.0005V25.0005ZM10 37.5005H50V32.5005C50 31.7922 49.7604 31.1984 49.2812 30.7192C48.8021 30.2401 48.2083 30.0005 47.5 30.0005H12.5C11.7917 30.0005 11.1979 30.2401 10.7187 30.7192C10.2396 31.1984 10 31.7922 10 32.5005V37.5005Z" fill="white"/>
</g>
</svg>
