<svg width="25" height="24" viewBox="0 0 25 24" fill="none" xmlns="http://www.w3.org/2000/svg">
<mask id="mask0_31_723" style="mask-type:alpha" maskUnits="userSpaceOnUse" x="0" y="0" width="25" height="24">
<rect x="0.5" width="24" height="24" fill="#D9D9D9"/>
</mask>
<g mask="url(#mask0_31_723)">
<path d="M5.825 17C5.34167 17 4.99167 17.1042 4.775 17.3125C4.55833 17.5208 4.25833 17.6667 3.875 17.75C3.49167 17.8333 3.16667 17.7958 2.9 17.6375C2.63333 17.4792 2.5 17.2417 2.5 16.925C2.5 16.675 2.60833 16.4333 2.825 16.2C3.04167 15.9667 3.38333 15.7333 3.85 15.5C3.93333 15.45 4.15417 15.3542 4.5125 15.2125C4.87083 15.0708 5.34167 15 5.925 15C6.84167 15 7.45833 15.1667 7.775 15.5C8.09167 15.8333 8.55833 16 9.175 16C9.79167 16 10.2542 15.8333 10.5625 15.5C10.8708 15.1667 11.5083 15 12.475 15C13.4417 15 14.0958 15.1667 14.4375 15.5C14.7792 15.8333 15.2583 16 15.875 16C16.4917 16 16.9417 15.8333 17.225 15.5C17.5083 15.1667 18.125 15 19.075 15C19.4583 15 19.8292 15.0458 20.1875 15.1375C20.5458 15.2292 20.9083 15.3667 21.275 15.55C21.6917 15.7667 22 15.9917 22.2 16.225C22.4 16.4583 22.5 16.6917 22.5 16.925C22.5 17.2417 22.3667 17.4792 22.1 17.6375C21.8333 17.7958 21.5083 17.8333 21.125 17.75C20.7417 17.6667 20.4375 17.5208 20.2125 17.3125C19.9875 17.1042 19.6417 17 19.175 17C18.5583 17 18.0958 17.1667 17.7875 17.5C17.4792 17.8333 16.8417 18 15.875 18C14.9083 18 14.2542 17.8333 13.9125 17.5C13.5708 17.1667 13.0917 17 12.475 17C11.8583 17 11.3958 17.1667 11.0875 17.5C10.7792 17.8333 10.1333 18 9.15 18C8.16667 18 7.525 17.8333 7.225 17.5C6.925 17.1667 6.45833 17 5.825 17ZM5.825 13C5.35833 13 5.0125 13.1042 4.7875 13.3125C4.5625 13.5208 4.25833 13.6667 3.875 13.75C3.49167 13.8333 3.16667 13.7958 2.9 13.6375C2.63333 13.4792 2.5 13.2417 2.5 12.925C2.5 12.675 2.60833 12.4333 2.825 12.2C3.04167 11.9667 3.38333 11.7333 3.85 11.5C3.93333 11.45 4.15417 11.3542 4.5125 11.2125C4.87083 11.0708 5.34167 11 5.925 11C6.84167 11 7.45833 11.1667 7.775 11.5C8.09167 11.8333 8.55833 12 9.175 12C9.79167 12 10.2542 11.8333 10.5625 11.5C10.8708 11.1667 11.5083 11 12.475 11C13.4417 11 14.0958 11.1667 14.4375 11.5C14.7792 11.8333 15.25 12 15.85 12C16.45 12 16.9 11.8333 17.2 11.5C17.5 11.1667 18.1167 11 19.05 11C19.6333 11 20.1042 11.0708 20.4625 11.2125C20.8208 11.3542 21.0417 11.45 21.125 11.5C21.6083 11.75 21.9583 11.9875 22.175 12.2125C22.3917 12.4375 22.5 12.675 22.5 12.925C22.5 13.2417 22.3625 13.4792 22.0875 13.6375C21.8125 13.7958 21.4833 13.8333 21.1 13.75C20.7167 13.6667 20.4167 13.5208 20.2 13.3125C19.9833 13.1042 19.6417 13 19.175 13C18.5583 13 18.0958 13.1667 17.7875 13.5C17.4792 13.8333 16.8417 14 15.875 14C14.9083 14 14.2542 13.8333 13.9125 13.5C13.5708 13.1667 13.0917 13 12.475 13C11.8583 13 11.4042 13.1667 11.1125 13.5C10.8208 13.8333 10.1833 14 9.2 14C8.21667 14 7.5625 13.8333 7.2375 13.5C6.9125 13.1667 6.44167 13 5.825 13ZM5.825 9C5.35833 9 5.0125 9.10417 4.7875 9.3125C4.5625 9.52083 4.25833 9.66667 3.875 9.75C3.49167 9.83333 3.16667 9.79583 2.9 9.6375C2.63333 9.47917 2.5 9.24167 2.5 8.925C2.5 8.675 2.60833 8.43333 2.825 8.2C3.04167 7.96667 3.38333 7.73333 3.85 7.5C3.93333 7.45 4.15417 7.35417 4.5125 7.2125C4.87083 7.07083 5.34167 7 5.925 7C6.84167 7 7.45833 7.16667 7.775 7.5C8.09167 7.83333 8.55833 8 9.175 8C9.79167 8 10.2542 7.83333 10.5625 7.5C10.8708 7.16667 11.5083 7 12.475 7C13.4417 7 14.0958 7.16667 14.4375 7.5C14.7792 7.83333 15.25 8 15.85 8C16.45 8 16.9 7.83333 17.2 7.5C17.5 7.16667 18.1167 7 19.05 7C19.6333 7 20.1042 7.07083 20.4625 7.2125C20.8208 7.35417 21.0417 7.45 21.125 7.5C21.6083 7.75 21.9583 7.9875 22.175 8.2125C22.3917 8.4375 22.5 8.675 22.5 8.925C22.5 9.24167 22.3625 9.47917 22.0875 9.6375C21.8125 9.79583 21.4833 9.83333 21.1 9.75C20.7167 9.66667 20.4167 9.52083 20.2 9.3125C19.9833 9.10417 19.6417 9 19.175 9C18.5583 9 18.0958 9.16667 17.7875 9.5C17.4792 9.83333 16.8417 10 15.875 10C14.9083 10 14.2542 9.83333 13.9125 9.5C13.5708 9.16667 13.0917 9 12.475 9C11.8583 9 11.4042 9.16667 11.1125 9.5C10.8208 9.83333 10.1833 10 9.2 10C8.21667 10 7.5625 9.83333 7.2375 9.5C6.9125 9.16667 6.44167 9 5.825 9Z" fill="white"/>
</g>
</svg>
