<svg width="32" height="32" viewBox="0 0 32 32" fill="none" xmlns="http://www.w3.org/2000/svg">
<mask id="mask0_88_393" style="mask-type:alpha" maskUnits="userSpaceOnUse" x="0" y="0" width="32" height="32">
<rect width="32" height="32" fill="#D9D9D9"/>
</mask>
<g mask="url(#mask0_88_393)">
<path d="M7.48684 24.6669V25.9233C7.48684 26.3151 7.34961 26.6481 7.07517 26.9223C6.80073 27.1965 6.46739 27.3336 6.07517 27.3336C5.68317 27.3336 5.35039 27.1965 5.07684 26.9223C4.80328 26.6481 4.6665 26.3151 4.6665 25.9233V16.5183C4.6665 16.3798 4.6755 16.2414 4.6935 16.1029C4.7115 15.9645 4.74173 15.8318 4.78417 15.7049L7.17184 8.95428C7.33161 8.47405 7.62117 8.08394 8.0405 7.78394C8.45984 7.48372 8.92917 7.33361 9.4485 7.33361H12.6152V6.17994C12.6152 5.83839 12.7307 5.55217 12.9618 5.32128C13.1927 5.09017 13.4789 4.97461 13.8205 4.97461H18.2305C18.5721 4.97461 18.8583 5.09017 19.0892 5.32128C19.3203 5.55217 19.4358 5.83839 19.4358 6.17994V7.33361H22.5512C23.0705 7.33361 23.5398 7.48372 23.9592 7.78394C24.3785 8.08394 24.6681 8.47405 24.8278 8.95428L27.2155 15.7049C27.2579 15.8318 27.2882 15.9645 27.3062 16.1029C27.3242 16.2414 27.3332 16.3798 27.3332 16.5183V25.9233C27.3332 26.3151 27.1959 26.6481 26.9215 26.9223C26.6468 27.1965 26.3135 27.3336 25.9215 27.3336C25.5293 27.3336 25.1964 27.1965 24.9228 26.9223C24.6495 26.6481 24.5128 26.3151 24.5128 25.9233V24.6669H7.48684ZM7.47684 14.1029H24.5228L22.9435 9.60294C22.9093 9.51739 22.8579 9.45117 22.7895 9.40428C22.7211 9.35717 22.6398 9.33361 22.5458 9.33361H9.45384C9.35984 9.33361 9.27861 9.35717 9.21017 9.40428C9.14173 9.45117 9.09039 9.51739 9.05617 9.60294L7.47684 14.1029ZM9.9515 21.1286C10.4366 21.1286 10.8481 20.9587 11.1858 20.6189C11.5234 20.2794 11.6922 19.8671 11.6922 19.3819C11.6922 18.8968 11.5224 18.4854 11.1828 18.1476C10.8431 17.8101 10.4306 17.6413 9.9455 17.6413C9.46039 17.6413 9.04906 17.8111 8.7115 18.1506C8.37373 18.4904 8.20484 18.9028 8.20484 19.3879C8.20484 19.8731 8.37473 20.2844 8.7145 20.6219C9.05406 20.9597 9.46639 21.1286 9.9515 21.1286ZM22.0542 21.1286C22.5393 21.1286 22.9506 20.9587 23.2882 20.6189C23.6259 20.2794 23.7948 19.8671 23.7948 19.3819C23.7948 18.8968 23.6249 18.4854 23.2852 18.1476C22.9456 17.8101 22.5333 17.6413 22.0482 17.6413C21.5631 17.6413 21.1516 17.8111 20.8138 18.1506C20.4763 18.4904 20.3075 18.9028 20.3075 19.3879C20.3075 19.8731 20.4773 20.2844 20.8168 20.6219C21.1566 20.9597 21.5691 21.1286 22.0542 21.1286ZM6.6665 22.6669H25.3332V16.1029H6.6665V22.6669Z" fill="white"/>
</g>
</svg>
