<svg width="32" height="32" viewBox="0 0 32 32" fill="none" xmlns="http://www.w3.org/2000/svg">
<mask id="mask0_88_402" style="mask-type:alpha" maskUnits="userSpaceOnUse" x="0" y="0" width="32" height="32">
<rect width="32" height="32" fill="#D9D9D9"/>
</mask>
<g mask="url(#mask0_88_402)">
<path d="M8.81316 27.6183L9.93849 25.0873C9.59338 24.8344 9.26138 24.5785 8.94249 24.3196C8.62361 24.0605 8.31805 23.7763 8.02583 23.467C7.86516 23.5336 7.70361 23.5836 7.54116 23.617C7.37872 23.6503 7.21038 23.667 7.03616 23.667C6.35416 23.667 5.76905 23.423 5.28083 22.935C4.79283 22.447 4.54883 21.8619 4.54883 21.1796C4.54883 20.7781 4.63694 20.4046 4.81316 20.0593C4.98916 19.714 5.23094 19.4276 5.53849 19.2003C5.36072 18.6892 5.23427 18.1725 5.15916 17.6503C5.08405 17.1281 5.04649 16.5781 5.04649 16.0003C5.04649 15.4225 5.08405 14.8725 5.15916 14.3503C5.23427 13.8281 5.36072 13.3114 5.53849 12.8003C5.23094 12.573 4.98916 12.2866 4.81316 11.9413C4.63694 11.596 4.54883 11.2225 4.54883 10.821C4.54883 10.1387 4.79283 9.55363 5.28083 9.06563C5.76905 8.57763 6.35416 8.33363 7.03616 8.33363C7.21038 8.33363 7.37872 8.3503 7.54116 8.38363C7.70361 8.41696 7.86516 8.46696 8.02583 8.53363C8.75916 7.73363 9.59383 7.06485 10.5298 6.5273C11.4656 5.98974 12.4668 5.59185 13.5335 5.33363C13.6275 4.7183 13.9117 4.20119 14.3862 3.7823C14.8604 3.36363 15.4053 3.1543 16.0208 3.1543C16.6362 3.1543 17.1809 3.36285 17.6552 3.77996C18.1296 4.19685 18.4138 4.70619 18.5078 5.30796C19.5916 5.56619 20.6014 5.96063 21.5372 6.4913C22.4732 7.02219 23.3078 7.68074 24.0412 8.46696C24.2018 8.4003 24.3557 8.35463 24.5028 8.32996C24.6497 8.30508 24.8035 8.29263 24.9642 8.29263C25.6462 8.29263 26.2313 8.53663 26.7195 9.02463C27.2075 9.51263 27.4515 10.0977 27.4515 10.78C27.4515 11.1815 27.3668 11.5481 27.1975 11.8796C27.0284 12.2114 26.7968 12.491 26.5028 12.7183C26.6806 13.243 26.8071 13.7767 26.8822 14.3196C26.9575 14.8623 26.9952 15.4225 26.9952 16.0003C26.9952 16.5781 26.9575 17.1392 26.8822 17.6836C26.8071 18.2281 26.6806 18.7559 26.5028 19.267C26.7882 19.4943 27.0134 19.7695 27.1785 20.0926C27.3434 20.4157 27.4258 20.7781 27.4258 21.1796C27.4258 21.8619 27.1818 22.447 26.6938 22.935C26.2058 23.423 25.6207 23.667 24.9385 23.667C24.7778 23.667 24.6241 23.6524 24.4772 23.6233C24.3301 23.5942 24.1762 23.5506 24.0155 23.4926C23.7233 23.802 23.4254 24.093 23.1218 24.3656C22.8185 24.6383 22.4788 24.9011 22.1028 25.154L23.1745 27.6386C23.3096 27.9311 23.2883 28.2055 23.1105 28.462C22.9327 28.7182 22.6865 28.8463 22.3718 28.8463C22.1874 28.8463 22.0255 28.7967 21.8862 28.6976C21.7468 28.5985 21.6413 28.4703 21.5695 28.313L20.5642 25.99C20.2188 26.1491 19.8804 26.285 19.5488 26.3976C19.2173 26.5105 18.8703 26.6089 18.5078 26.6926C18.4138 27.2944 18.1296 27.8037 17.6552 28.2206C17.1809 28.6377 16.6362 28.8463 16.0208 28.8463C15.4053 28.8463 14.8604 28.637 14.3862 28.2183C13.9117 27.7994 13.6275 27.2823 13.5335 26.667C13.1575 26.5832 12.8003 26.4849 12.4618 26.372C12.1234 26.2593 11.7815 26.1234 11.4362 25.9643L10.4052 28.3336C10.3334 28.491 10.2245 28.6157 10.0785 28.708C9.93227 28.8002 9.77372 28.8463 9.60283 28.8463C9.28816 28.8463 9.04416 28.7147 8.87083 28.4516C8.69727 28.1883 8.67805 27.9105 8.81316 27.6183ZM10.5182 23.6876L12.8668 18.431C12.5984 18.0907 12.3903 17.7147 12.2425 17.303C12.0947 16.891 12.0208 16.4567 12.0208 16.0003C12.0208 14.9132 12.4156 13.9747 13.2052 13.185C13.9949 12.3952 14.9335 12.0003 16.0208 12.0003C17.1079 12.0003 18.0464 12.3952 18.8362 13.185C19.6257 13.9747 20.0205 14.9132 20.0205 16.0003C20.0205 16.4567 19.9389 16.8999 19.7758 17.3296C19.6125 17.7596 19.3898 18.149 19.1078 18.4976L21.4565 23.7133C21.7078 23.5269 21.9493 23.3401 22.1808 23.153C22.4126 22.9656 22.6344 22.7506 22.8462 22.508C22.701 22.3217 22.5989 22.1145 22.5398 21.8863C22.4809 21.6581 22.4515 21.4225 22.4515 21.1796C22.4515 20.4685 22.7152 19.8682 23.2425 19.3786C23.7698 18.8889 24.3763 18.6687 25.0618 18.7183C25.1952 18.2739 25.2994 17.8306 25.3745 17.3886C25.4498 16.9469 25.4875 16.4841 25.4875 16.0003C25.4875 15.5165 25.4498 15.0469 25.3745 14.5913C25.2994 14.1357 25.1952 13.6857 25.0618 13.2413C24.3763 13.2909 23.7741 13.0707 23.2552 12.581C22.7365 12.0914 22.4772 11.4911 22.4772 10.78C22.4772 10.5542 22.5156 10.3341 22.5925 10.1196C22.6694 9.90496 22.7625 9.70452 22.8718 9.5183C22.2274 8.84807 21.5099 8.28863 20.7195 7.83996C19.9288 7.3913 19.0874 7.04474 18.1952 6.8003C17.9934 7.20363 17.7015 7.52585 17.3195 7.76696C16.9373 8.00807 16.5044 8.12863 16.0208 8.12863C15.537 8.12863 15.1041 8.00807 14.7218 7.76696C14.3398 7.52585 14.0479 7.20363 13.8462 6.8003C12.9266 7.04474 12.0715 7.39474 11.2808 7.8503C10.4904 8.30585 9.77294 8.87552 9.12849 9.5593C9.23783 9.74552 9.33094 9.94596 9.40783 10.1606C9.48472 10.3751 9.52316 10.5952 9.52316 10.821C9.52316 11.5405 9.26638 12.1375 8.75283 12.612C8.23905 13.0862 7.63949 13.3096 6.95416 13.2823C6.82083 13.7267 6.72083 14.17 6.65416 14.612C6.58749 15.0537 6.55416 15.5165 6.55416 16.0003C6.55416 16.4841 6.58749 16.9469 6.65416 17.3886C6.72083 17.8306 6.82083 18.2739 6.95416 18.7183C7.62238 18.6687 8.21761 18.8866 8.73983 19.372C9.26205 19.8575 9.52316 20.4601 9.52316 21.1796C9.52316 21.4225 9.49372 21.647 9.43483 21.853C9.37572 22.059 9.27361 22.2551 9.12849 22.4413C9.34027 22.684 9.56205 22.9015 9.79383 23.094C10.0254 23.2862 10.2668 23.4841 10.5182 23.6876ZM12.0565 24.5643C12.3352 24.7012 12.6236 24.8204 12.9218 24.922C13.2203 25.0237 13.5284 25.1165 13.8462 25.2003C14.0479 24.797 14.3398 24.4747 14.7218 24.2336C15.1041 23.9925 15.537 23.872 16.0208 23.872C16.5044 23.872 16.9373 23.9925 17.3195 24.2336C17.7015 24.4747 17.9934 24.797 18.1952 25.2003C18.5045 25.1165 18.7993 25.0281 19.0795 24.935C19.3599 24.8419 19.6395 24.7269 19.9182 24.59L17.7028 19.6156C17.4446 19.7352 17.1775 19.8292 16.9015 19.8976C16.6255 19.9661 16.3319 20.0003 16.0208 20.0003C15.6959 20.0003 15.3877 19.9626 15.0962 19.8873C14.8048 19.8122 14.5301 19.6994 14.2718 19.549L12.0565 24.5643ZM16.0208 18.0003C16.5542 18.0003 17.0208 17.8114 17.4208 17.4336C17.8208 17.0559 18.0208 16.5781 18.0208 16.0003C18.0208 15.467 17.8208 15.0003 17.4208 14.6003C17.0208 14.2003 16.5542 14.0003 16.0208 14.0003C15.443 14.0003 14.9653 14.2003 14.5875 14.6003C14.2097 15.0003 14.0208 15.467 14.0208 16.0003C14.0208 16.5781 14.2097 17.0559 14.5875 17.4336C14.9653 17.8114 15.443 18.0003 16.0208 18.0003Z" fill="white"/>
</g>
</svg>
