<svg width="24" height="24" viewBox="0 0 24 24" fill="none" xmlns="http://www.w3.org/2000/svg">
<mask id="mask0_31_717" style="mask-type:alpha" maskUnits="userSpaceOnUse" x="0" y="0" width="24" height="24">
<rect width="24" height="24" fill="#D9D9D9"/>
</mask>
<g mask="url(#mask0_31_717)">
<path d="M11.9999 21.975C11.3999 21.975 10.8291 21.9083 10.2874 21.775C9.74577 21.6417 9.1416 21.4167 8.47493 21.1C7.6916 21.4167 6.94577 21.6333 6.23743 21.75C5.5291 21.8667 4.78327 21.9417 3.99993 21.975C3.7166 21.9917 3.4791 21.9042 3.28743 21.7125C3.09577 21.5208 2.99993 21.2833 2.99993 21C2.99993 20.7167 3.09577 20.4792 3.28743 20.2875C3.4791 20.0958 3.7166 19.9917 3.99993 19.975C4.39993 19.9583 4.77077 19.9333 5.11243 19.9C5.4541 19.8667 5.7916 19.8125 6.12493 19.7375C6.45827 19.6625 6.79993 19.5667 7.14993 19.45C7.49993 19.3333 7.87493 19.1917 8.27493 19.025C8.35827 18.9917 8.4416 18.975 8.52493 18.975C8.60827 18.975 8.6916 18.9917 8.77493 19.025C9.32493 19.3083 9.8291 19.5417 10.2874 19.725C10.7458 19.9083 11.3166 20 11.9999 20C12.6833 20 13.2541 19.9083 13.7124 19.725C14.1708 19.5417 14.6749 19.3083 15.2249 19.025C15.3083 18.9917 15.3916 18.975 15.4749 18.975C15.5583 18.975 15.6416 18.9917 15.7249 19.025C16.1249 19.1917 16.4999 19.3333 16.8499 19.45C17.1999 19.5667 17.5416 19.6625 17.8749 19.7375C18.2083 19.8125 18.5499 19.8667 18.8999 19.9C19.2499 19.9333 19.6166 19.9583 19.9999 19.975C20.2833 19.9917 20.5208 20.0958 20.7124 20.2875C20.9041 20.4792 20.9999 20.7167 20.9999 21C20.9999 21.2833 20.9041 21.5208 20.7124 21.7125C20.5208 21.9042 20.2833 21.9917 19.9999 21.975C19.2166 21.9417 18.4708 21.8667 17.7624 21.75C17.0541 21.6333 16.3166 21.4167 15.5499 21.1C14.8833 21.4167 14.2749 21.6417 13.7249 21.775C13.1749 21.9083 12.5999 21.975 11.9999 21.975ZM11.9999 18C10.9999 18 10.1249 17.6667 9.37493 17L8.24993 16C7.93327 16.3 7.59577 16.5708 7.23743 16.8125C6.8791 17.0542 6.50827 17.2667 6.12493 17.45C5.80827 17.5833 5.49577 17.5667 5.18743 17.4C4.8791 17.2333 4.67493 16.9833 4.57493 16.65L2.82493 11C2.7416 10.7167 2.7666 10.4583 2.89993 10.225C3.03327 9.99167 3.2416 9.83333 3.52493 9.75L4.99993 9.35V6C4.99993 5.45 5.19577 4.97917 5.58743 4.5875C5.9791 4.19583 6.44993 4 6.99993 4H9.49993V3C9.49993 2.71667 9.59577 2.47917 9.78743 2.2875C9.9791 2.09583 10.2166 2 10.4999 2H13.4999C13.7833 2 14.0208 2.09583 14.2124 2.2875C14.4041 2.47917 14.4999 2.71667 14.4999 3V4H16.9999C17.5499 4 18.0208 4.19583 18.4124 4.5875C18.8041 4.97917 18.9999 5.45 18.9999 6V9.35L20.4749 9.75C20.7583 9.83333 20.9666 9.99167 21.0999 10.225C21.2333 10.4583 21.2583 10.7167 21.1749 11L19.4249 16.65C19.3249 16.9833 19.1208 17.2333 18.8124 17.4C18.5041 17.5667 18.1916 17.5833 17.8749 17.45C17.4749 17.2667 17.0958 17.0542 16.7374 16.8125C16.3791 16.5708 16.0499 16.3 15.7499 16L14.6249 17C13.8749 17.6667 12.9999 18 11.9999 18ZM6.99993 6V8.825L11.4999 7.625C11.6666 7.575 11.8333 7.55 11.9999 7.55C12.1666 7.55 12.3333 7.575 12.4999 7.625L16.9999 8.825V6H6.99993ZM11.9999 9.575L5.04993 11.4L6.19993 15.125C6.44993 14.925 6.68743 14.7208 6.91243 14.5125C7.13743 14.3042 7.3666 14.0833 7.59993 13.85C7.79993 13.6333 8.04577 13.5292 8.33743 13.5375C8.6291 13.5458 8.8666 13.6667 9.04993 13.9C9.43327 14.35 9.8666 14.8125 10.3499 15.2875C10.8333 15.7625 11.3999 16 12.0499 16C12.6833 16 13.2333 15.7583 13.6999 15.275C14.1666 14.7917 14.5916 14.3333 14.9749 13.9C15.1583 13.6667 15.3958 13.5458 15.6874 13.5375C15.9791 13.5292 16.2249 13.6333 16.4249 13.85C16.6583 14.0833 16.8874 14.3042 17.1124 14.5125C17.3374 14.7208 17.5749 14.925 17.8249 15.125L18.9749 11.4L11.9999 9.575Z" fill="white"/>
</g>
</svg>
