<svg width="300" height="116" viewBox="0 0 300 116" fill="none" xmlns="http://www.w3.org/2000/svg">
<g clip-path="url(#clip0_68_314)">
<path d="M61.7624 74.6445C56.3009 74.6518 51.8049 78.9376 51.8049 84.3004C51.8049 89.6631 56.3009 93.9056 61.7624 93.92C67.2743 93.8984 71.7343 89.6125 71.7343 84.3004C71.7343 78.9882 67.2743 74.6518 61.7624 74.6445ZM61.6255 89.5186C58.7722 89.5186 56.6107 87.1769 56.6107 84.3076C56.6107 81.4383 58.9163 79.046 61.7552 79.046C64.594 79.046 66.8204 81.3805 66.8204 84.3076C66.8204 87.2347 64.4859 89.5186 61.6183 89.5186H61.6255Z" fill="#004289"/>
<path d="M16.053 67.9964C17.5805 69.5069 19.3242 70.8223 21.0318 71.6751L21.2119 71.7691L24.1516 68.2782L23.8706 68.1192C21.075 66.6015 18.8846 64.6862 17.458 62.265C16.0386 59.8872 15.3109 57.1119 15.3109 53.809V50.7012H10.0512V53.4765C10.0512 57.0613 9.23697 59.88 7.7239 62.3518C6.02349 65.0837 3.5089 67.2881 0.288202 69.3262L0.00720215 69.4997L3.20628 72.8171L3.3792 72.7159C5.27415 71.6751 7.29159 70.0779 9.04964 68.2999C10.5699 66.746 11.8885 65.0693 12.681 63.4865C13.452 65.0331 14.6408 66.6159 16.0602 67.9747L16.053 67.9964Z" fill="#004289"/>
<path d="M10.3682 91.643H32.4015V76.5449H10.3682V91.643ZM15.3109 80.8091H27.4371V87.386H15.3109V80.8091Z" fill="#004289"/>
<path d="M32.4807 49.8105H27.5884V74.8174H32.4807V63.7522H38.2232V59.3074H32.4807V49.8105Z" fill="#004289"/>
<path d="M157.432 69.2755C159.039 70.6776 160.883 71.8557 162.613 72.6146L162.793 72.7013L165.437 69.1093L165.156 68.972C162.634 67.671 160.379 66.0665 158.765 64.1151C157.115 62.1132 156.135 59.7064 156.135 56.801V55.9482H163.42V51.6406H143.627V55.9482H150.911V56.9817C150.911 59.6197 150.032 62.0842 148.591 64.2163C146.891 66.7748 144.405 68.8419 141.999 70.1717L141.682 70.3452L144.931 73.7204L145.111 73.6336C146.869 72.6363 148.8 71.1257 150.458 69.4345C151.783 68.0396 152.972 66.5652 153.7 65.0981C154.579 66.5219 155.926 67.9529 157.432 69.2827V69.2755Z" fill="#004289"/>
<path d="M192.867 80.9101H210.678V91.6428H215.628V76.6387H192.867V80.9101Z" fill="#004289"/>
<path d="M205.159 63.717C205.159 61.3537 204.107 59.1782 202.536 57.5159H207.428V53.259H198.091V48.5684H192.788V53.259H183.226V57.5159H188.22C186.699 59.1782 185.633 61.332 185.633 63.717C185.633 68.9858 189.963 73.2717 195.382 73.2861C200.8 73.2717 205.159 68.9858 205.166 63.717H205.159ZM190.352 63.5219C190.352 60.602 192.809 58.1302 195.374 58.1302C197.939 58.1302 200.389 60.6165 200.396 63.5219C200.396 66.3912 197.939 68.8702 195.374 68.8774C192.802 68.8702 190.352 66.3912 190.352 63.5219Z" fill="#004289"/>
<path d="M215.628 49.8105H210.736V74.9041H215.628V65.3278H221.378V60.8902H215.628V49.8105Z" fill="#004289"/>
<path d="M174.126 49.8105H169.227V74.9041H174.126V63.7522H179.869V59.3074H174.126V49.8105Z" fill="#004289"/>
<path d="M285.467 68.7329H268.91V56.0849H281.526V51.6328H263.953V73.0549H285.467V68.7329Z" fill="#004289"/>
<path d="M67.7498 57.2548H60.0475V61.6563H67.7498V75.6919H72.6493V49.8105H67.7498V57.2548Z" fill="#004289"/>
<path d="M55.2994 68.6455C56.8268 70.156 58.6065 71.4714 60.3213 72.3604L60.5087 72.4688L63.4556 68.9779L63.1674 68.8117C60.3718 67.3518 58.2246 65.4365 56.7908 63.0515C55.3282 60.6881 54.6005 57.8116 54.6005 54.5014V50.707H49.3263V54.1906C49.3263 57.7754 48.5265 60.5869 47.0423 63.0153C45.3419 65.7979 42.7912 68.0095 39.5633 70.0404L39.2896 70.2138L42.4958 73.5457L42.6543 73.4445C44.5565 72.4037 46.5235 70.8932 48.2743 69.1658C49.8523 67.583 51.178 65.8701 51.9706 64.2078C52.7271 65.7111 53.8871 67.2578 55.2849 68.6455H55.2994Z" fill="#004289"/>
<path d="M163.614 74.6445C158.153 74.6518 153.657 78.9376 153.649 84.3004C153.657 89.6125 158.153 93.9056 163.614 93.92C169.119 93.8984 173.586 89.6125 173.586 84.3004C173.586 78.9882 169.119 74.6518 163.614 74.6445ZM163.47 89.5186C160.624 89.5186 158.455 87.1769 158.455 84.3076C158.455 81.4383 160.754 79.046 163.614 79.046C166.475 79.046 168.672 81.3805 168.679 84.3076C168.672 87.1769 166.338 89.5186 163.47 89.5186Z" fill="#004289"/>
<path d="M276.108 78.3164H271.151V91.6438H294.322V87.2495H276.108V78.3164Z" fill="#004289"/>
<path d="M294.207 61.4033V49.8105H289.315V80.6644H294.207V65.8337H300V61.4033H294.207Z" fill="#004289"/>
<path d="M252.763 61.1142H248.642V50.5188H244.016V90.5659H248.642V65.9349H252.763V91.6428H257.569V49.8105H252.763V61.1142Z" fill="#004289"/>
<path d="M237.215 66.6652C236.112 64.244 235.658 61.5482 235.658 58.2236V56.6408H241.213V52.1309H225.059V56.6408H230.795V58.3031C230.795 61.447 230.384 64.0127 229.39 66.3978C228.244 69.1297 226.313 71.6015 223.237 74.2323L223.02 74.4347L226.061 77.4557L226.248 77.3112C227.776 76.1765 229.375 74.5358 230.715 72.8446C231.839 71.4136 232.791 69.9392 233.396 68.6383C234.008 69.9031 234.966 71.3558 236.083 72.7145C237.387 74.3046 238.85 75.8151 240.255 76.7113L240.45 76.8414L243.007 73.7697L242.806 73.5818C240.053 71.1751 238.346 69.0286 237.222 66.658L237.215 66.6652Z" fill="#004289"/>
<path d="M13.9203 106.076C11.5714 105.238 11.1319 104.674 11.1319 103.706C11.1319 102.737 11.8092 101.971 13.4159 101.971C14.5904 101.971 15.3829 102.354 16.2331 103.063L17.0689 102.029C16.0818 101.241 15.0731 100.771 13.5024 100.771C11.3048 100.771 9.82057 101.892 9.82057 103.785C9.82057 105.484 10.6852 106.3 13.2142 107.218C15.3613 107.992 16.017 108.62 16.017 109.705C16.017 110.955 15.0443 111.721 13.4808 111.721C12.2703 111.721 11.2472 111.165 10.361 110.312L9.48914 111.287C10.4114 112.22 11.8452 112.914 13.4375 112.914C15.8873 112.914 17.3283 111.483 17.3283 109.64C17.3283 107.797 16.5285 107.009 13.9275 106.062L13.9203 106.076Z" fill="#004289"/>
<path d="M22.6529 103.727C21.5073 103.727 20.4626 104.008 19.6916 104.428L20.1671 105.454C20.8877 105.035 21.6442 104.775 22.5665 104.775C23.849 104.775 24.483 105.411 24.483 106.733V107.781C23.9643 107.492 23.1717 107.268 22.2783 107.268C20.5346 107.268 18.9062 108.114 18.9062 110.101C18.9062 112.233 20.3545 112.92 21.7235 112.92C22.9844 112.92 23.849 112.334 24.4758 111.662V112.739H25.7295V106.581C25.7295 104.529 24.5407 103.727 22.6529 103.727ZM24.4758 110.571C23.9426 111.308 23.078 111.901 21.9396 111.901C20.866 111.901 20.1383 111.323 20.1383 110.007C20.1383 108.901 20.9165 108.265 22.2062 108.265C23.2798 108.265 23.8994 108.461 24.4686 108.779V110.564L24.4758 110.571Z" fill="#004289"/>
<path d="M38.3745 107.572V112.739H39.6354V107.355C39.6354 104.775 38.5186 103.727 36.7173 103.727C35.2907 103.727 34.5702 104.391 34.0514 105.237C33.6335 104.391 32.877 103.727 31.6377 103.727C30.5929 103.727 29.8508 104.225 29.4041 104.991V103.914H28.136V112.746H29.4041V107.579C29.4041 105.62 30.1606 104.818 31.3711 104.818C32.5816 104.818 33.266 105.555 33.266 107.579V112.746H34.5269V107.579C34.5269 105.62 35.2907 104.818 36.4867 104.818C37.762 104.818 38.3817 105.555 38.3817 107.579L38.3745 107.572Z" fill="#004289"/>
<path d="M44.679 107.615C43.1875 106.936 42.7408 106.639 42.7408 105.895C42.7408 105.259 43.274 104.796 44.2035 104.796C45.1329 104.796 45.7093 105.049 46.3938 105.591L47.0999 104.659C46.4298 104.102 45.4932 103.727 44.2755 103.727C42.6832 103.727 41.5304 104.63 41.5304 105.974C41.5304 107.391 42.2653 107.926 44.0305 108.685C45.5868 109.357 46.1128 109.761 46.1128 110.484C46.1128 111.344 45.5436 111.85 44.3331 111.85C43.4613 111.85 42.6399 111.489 41.9338 110.874L41.1917 111.8C42.0347 112.479 43.0867 112.927 44.2971 112.927C45.8246 112.927 47.3161 112.175 47.3161 110.441C47.3161 108.858 46.3434 108.374 44.679 107.622V107.615Z" fill="#004289"/>
<path d="M54.6725 109.068C54.6725 111.005 53.707 111.822 52.4966 111.822C51.0772 111.822 50.4071 110.969 50.4071 109.068V103.908H49.1534V109.285C49.1534 111.822 50.371 112.913 52.23 112.913C53.3468 112.913 54.1609 112.393 54.6653 111.655V112.732H55.9262V103.9H54.6653V109.061L54.6725 109.068Z" fill="#004289"/>
<path d="M64.8245 112.739V107.355C64.8245 104.811 63.5997 103.727 61.7335 103.727C60.6311 103.727 59.8098 104.24 59.3126 104.991V103.914H58.0445V112.746H59.3126V107.579C59.3126 105.649 60.2565 104.818 61.4885 104.818C62.8935 104.818 63.5708 105.678 63.5708 107.579V112.746H64.8317L64.8245 112.739Z" fill="#004289"/>
<path d="M68.7873 115.03L69.1908 115.991C72.462 115.883 73.6508 114.611 73.6508 111.951V103.907H72.3971V104.897C71.7775 104.189 71.0281 103.727 69.9186 103.727C68.0668 103.727 66.5898 105.331 66.5898 108.468C66.5898 111.604 67.9876 112.92 69.7528 112.92C70.9417 112.92 71.7847 112.334 72.4043 111.662V112.118C72.4043 114.17 71.7342 114.944 68.7946 115.03H68.7873ZM70.0627 111.828C68.6721 111.828 67.8291 110.672 67.8291 108.453C67.8291 106.075 68.5496 104.818 70.0122 104.818C71.057 104.818 71.9072 105.411 72.3899 106.141V110.556C71.7703 111.337 70.9993 111.828 70.0555 111.828H70.0627Z" fill="#004289"/>
<path d="M87.5351 106.77C87.5351 102.73 85.2655 100.959 82.1817 100.959H79.0763V112.74H81.9439C85.0854 112.74 87.5351 111.041 87.5351 106.763V106.77ZM80.3876 102.152H82.0808C84.7828 102.152 86.2238 103.807 86.2238 106.813C86.2238 110.203 84.6459 111.547 82.1097 111.547H80.3804V102.152H80.3876Z" fill="#004289"/>
<path d="M90.8927 105.007V103.916H89.6318V112.748H90.8927V107.565C90.8927 105.874 91.5772 104.899 92.8092 104.899C93.3929 104.899 93.7819 105.029 94.1278 105.231L94.4448 103.959C94.1494 103.822 93.7243 103.742 93.0758 103.742C92.1319 103.742 91.289 104.306 90.8999 105.021L90.8927 105.007Z" fill="#004289"/>
<path d="M101.974 111.901L101.391 110.99C100.584 111.532 99.9784 111.828 98.9481 111.828C97.5142 111.828 96.6208 110.636 96.4983 108.757H102.371C102.414 108.547 102.428 108.367 102.428 108.063C102.428 105.541 101.182 103.727 98.8832 103.727C96.7865 103.727 95.2446 105.468 95.2446 108.273C95.2446 111.749 97.2044 112.92 98.8184 112.92C100.144 112.92 100.922 112.566 101.981 111.901H101.974ZM98.8688 104.811C100.411 104.811 101.153 106.003 101.254 107.723H96.4983C96.6424 105.75 97.5575 104.811 98.8688 104.811Z" fill="#004289"/>
<path d="M106.614 112.92C107.875 112.92 108.747 112.334 109.367 111.662V112.739H110.628V106.581C110.628 104.529 109.439 103.727 107.537 103.727C106.391 103.727 105.353 104.008 104.582 104.428L105.058 105.454C105.778 105.035 106.535 104.775 107.457 104.775C108.747 104.775 109.367 105.411 109.367 106.733V107.781C108.855 107.492 108.062 107.268 107.183 107.268C105.433 107.268 103.797 108.114 103.797 110.101C103.797 112.233 105.245 112.92 106.614 112.92ZM107.104 108.273C108.171 108.273 108.797 108.468 109.367 108.786V110.571C108.833 111.308 107.976 111.901 106.845 111.901C105.714 111.901 105.044 111.323 105.044 110.007C105.044 108.901 105.822 108.265 107.111 108.265L107.104 108.273Z" fill="#004289"/>
<path d="M123.265 107.572V112.739H124.519V107.355C124.519 104.775 123.402 103.727 121.601 103.727C120.174 103.727 119.454 104.391 118.935 105.237C118.517 104.391 117.768 103.727 116.521 103.727C115.477 103.727 114.742 104.225 114.288 104.991V103.914H113.034V112.746H114.288V107.579C114.288 105.62 115.044 104.818 116.255 104.818C117.465 104.818 118.15 105.555 118.15 107.579V112.746H119.403V107.579C119.403 105.62 120.174 104.818 121.37 104.818C122.638 104.818 123.265 105.555 123.265 107.579V107.572Z" fill="#004289"/>
<path d="M133.936 106.077C131.587 105.239 131.155 104.682 131.155 103.706C131.155 102.731 131.825 101.972 133.432 101.972C134.613 101.972 135.399 102.355 136.249 103.063L137.085 102.037C136.098 101.249 135.089 100.779 133.518 100.779C131.321 100.779 129.844 101.892 129.844 103.786C129.844 105.484 130.694 106.308 133.237 107.212C135.384 107.992 136.04 108.614 136.04 109.705C136.04 110.948 135.067 111.722 133.504 111.722C132.293 111.722 131.27 111.158 130.377 110.305L129.505 111.274C130.427 112.22 131.861 112.907 133.446 112.907C135.889 112.907 137.337 111.476 137.337 109.633C137.337 107.79 136.537 107.002 133.936 106.055V106.077Z" fill="#004289"/>
<path d="M142.683 104.818C143.569 104.818 144.16 105.136 144.794 105.714L145.551 104.767C144.859 104.16 143.951 103.727 142.762 103.727C140.918 103.727 138.973 105.1 138.973 108.374C138.973 111.453 140.738 112.927 142.683 112.927C143.915 112.927 144.773 112.457 145.515 111.698L144.758 110.896C144.16 111.482 143.584 111.836 142.734 111.836C141.17 111.836 140.248 110.441 140.248 108.265C140.248 106.09 141.314 104.818 142.69 104.818H142.683Z" fill="#004289"/>
<path d="M150.94 103.727C149.838 103.727 149.009 104.24 148.505 104.992V100.836H147.251V112.747H148.505V107.579C148.505 105.642 149.47 104.818 150.688 104.818C152.1 104.818 152.763 105.671 152.763 107.579V112.747H154.024V107.355C154.024 104.818 152.799 103.727 150.933 103.727H150.94Z" fill="#004289"/>
<path d="M159.644 103.727C157.504 103.727 155.789 105.331 155.789 108.338C155.789 111.344 157.432 112.927 159.579 112.927C161.726 112.927 163.441 111.265 163.441 108.265C163.441 105.266 161.784 103.727 159.644 103.727ZM159.622 111.836C158.095 111.836 157.065 110.629 157.065 108.302C157.065 105.974 158.095 104.818 159.622 104.818C161.15 104.818 162.18 105.982 162.18 108.302C162.18 110.622 161.143 111.836 159.622 111.836Z" fill="#004289"/>
<path d="M166.604 100.836H165.343V112.747H166.604V100.836Z" fill="#004289"/>
<path d="M172.354 103.727C171.215 103.727 170.171 104.016 169.407 104.435L169.875 105.468C170.596 105.042 171.352 104.789 172.275 104.789C173.564 104.789 174.184 105.432 174.184 106.733V107.788C173.665 107.492 172.873 107.275 171.994 107.275C170.243 107.275 168.614 108.121 168.614 110.108C168.614 112.248 170.055 112.927 171.432 112.927C172.693 112.927 173.564 112.349 174.184 111.669V112.746H175.445V106.589C175.445 104.529 174.256 103.727 172.354 103.727ZM174.184 110.571C173.651 111.308 172.786 111.901 171.655 111.901C170.589 111.901 169.861 111.323 169.861 110.014C169.861 108.901 170.639 108.28 171.929 108.28C173.002 108.28 173.622 108.468 174.191 108.786V110.571H174.184Z" fill="#004289"/>
<path d="M179.105 105.006V103.907H177.844V112.746H179.105V107.564C179.105 105.88 179.79 104.89 181.014 104.89C181.605 104.89 181.987 105.02 182.34 105.223L182.657 103.943C182.362 103.813 181.937 103.727 181.288 103.727C180.344 103.727 179.501 104.29 179.105 105.006Z" fill="#004289"/>
<path d="M187.492 107.616C185.993 106.937 185.546 106.633 185.546 105.889C185.546 105.253 186.087 104.79 187.009 104.79C187.931 104.79 188.522 105.051 189.207 105.585L189.913 104.66C189.235 104.104 188.306 103.721 187.096 103.721C185.496 103.721 184.343 104.624 184.343 105.976C184.343 107.392 185.085 107.927 186.851 108.679C188.407 109.351 188.933 109.756 188.933 110.478C188.933 111.346 188.356 111.844 187.16 111.844C186.281 111.844 185.46 111.483 184.754 110.869L184.019 111.794C184.855 112.473 185.914 112.921 187.124 112.921C188.645 112.921 190.143 112.17 190.143 110.435C190.143 108.845 189.171 108.368 187.506 107.609L187.492 107.616Z" fill="#004289"/>
<path d="M195.871 103.727C194.762 103.727 193.94 104.24 193.436 104.992V100.836H192.182V112.747H193.436V107.579C193.436 105.642 194.394 104.818 195.619 104.818C197.024 104.818 197.694 105.671 197.694 107.579V112.747H198.955V107.355C198.955 104.818 197.73 103.727 195.871 103.727Z" fill="#004289"/>
<path d="M202.695 103.908H201.441V112.747H202.695V103.908Z" fill="#004289"/>
<path d="M202.097 100.525C201.578 100.525 201.174 100.93 201.174 101.443C201.174 101.928 201.578 102.332 202.097 102.332C202.558 102.332 202.969 101.928 202.969 101.443C202.969 100.93 202.558 100.525 202.097 100.525Z" fill="#004289"/>
<path d="M209.143 103.727C207.954 103.727 207.111 104.312 206.492 104.991V103.914H205.238V115.999H206.492V111.756C207.111 112.457 207.868 112.927 208.978 112.927C210.822 112.927 212.299 111.308 212.299 108.186C212.299 105.064 210.901 103.727 209.143 103.727ZM208.877 111.836C207.839 111.836 206.982 111.243 206.492 110.506V106.097C207.111 105.331 207.89 104.818 208.826 104.818C210.224 104.818 211.067 105.982 211.067 108.2C211.067 110.571 210.347 111.836 208.877 111.836Z" fill="#004289"/>
<path d="M218.964 102.159H224.555V100.967H217.653V112.747H218.964V107.255H222.185V106.069H218.964V102.159Z" fill="#004289"/>
<path d="M228.381 103.727C226.241 103.727 224.519 105.331 224.519 108.338C224.519 111.344 226.169 112.927 228.309 112.927C230.449 112.927 232.171 111.265 232.171 108.265C232.171 105.266 230.528 103.727 228.381 103.727ZM228.345 111.836C226.817 111.836 225.794 110.629 225.794 108.302C225.794 105.974 226.817 104.818 228.345 104.818C229.872 104.818 230.917 105.982 230.917 108.302C230.917 110.622 229.88 111.836 228.345 111.836Z" fill="#004289"/>
<path d="M239.124 109.069C239.124 111.006 238.173 111.829 236.948 111.829C235.536 111.829 234.866 110.977 234.866 109.069V103.908H233.605V109.293C233.605 111.837 234.83 112.928 236.696 112.928C237.791 112.928 238.612 112.415 239.117 111.67V112.747H240.378V103.908H239.117V109.069H239.124Z" fill="#004289"/>
<path d="M246.185 103.727C245.082 103.727 244.261 104.24 243.75 104.991V103.914H242.489V112.754H243.75V107.586C243.75 105.649 244.708 104.825 245.933 104.825C247.345 104.825 248.015 105.678 248.015 107.586V112.754H249.269V107.362C249.269 104.825 248.044 103.734 246.178 103.734L246.185 103.727Z" fill="#004289"/>
<path d="M256.848 104.905C256.229 104.197 255.472 103.727 254.363 103.727C252.518 103.727 251.041 105.331 251.041 108.475C251.041 111.619 252.432 112.927 254.197 112.927C255.386 112.927 256.222 112.349 256.848 111.67V112.747H258.109V100.836H256.848V104.912V104.905ZM256.848 110.557C256.229 111.33 255.451 111.836 254.514 111.836C253.123 111.836 252.28 110.68 252.28 108.454C252.28 106.076 253.001 104.818 254.464 104.818C255.508 104.818 256.351 105.404 256.848 106.148V110.557Z" fill="#004289"/>
<path d="M263.448 103.727C262.303 103.727 261.265 104.016 260.494 104.435L260.963 105.468C261.69 105.042 262.447 104.789 263.362 104.789C264.652 104.789 265.271 105.432 265.271 106.733V107.788C264.752 107.492 263.96 107.275 263.074 107.275C261.337 107.275 259.702 108.121 259.702 110.108C259.702 112.248 261.15 112.927 262.526 112.927C263.787 112.927 264.652 112.349 265.271 111.669V112.746H266.532V106.589C266.532 104.529 265.343 103.727 263.448 103.727ZM265.271 110.571C264.738 111.308 263.881 111.901 262.735 111.901C261.669 111.901 260.948 111.323 260.948 110.014C260.948 108.901 261.719 108.28 263.009 108.28C264.082 108.28 264.702 108.468 265.271 108.786V110.571Z" fill="#004289"/>
<path d="M270.545 100.836H269.284V103.915H268.197V104.977H269.284V110.94C269.284 112.4 269.875 112.935 270.97 112.935C271.633 112.935 272.102 112.841 272.592 112.631L272.678 111.54C272.275 111.706 271.943 111.793 271.432 111.793C270.762 111.793 270.545 111.525 270.545 110.73V104.977H272.729V103.915H270.545V100.836Z" fill="#004289"/>
<path d="M275.582 100.525C275.063 100.525 274.652 100.93 274.652 101.443C274.652 101.928 275.063 102.332 275.582 102.332C276.057 102.332 276.461 101.928 276.461 101.443C276.461 100.93 276.057 100.525 275.582 100.525Z" fill="#004289"/>
<path d="M276.18 103.908H274.926V112.747H276.18V103.908Z" fill="#004289"/>
<path d="M281.944 103.727C279.804 103.727 278.089 105.331 278.089 108.338C278.089 111.344 279.732 112.927 281.879 112.927C284.026 112.927 285.734 111.265 285.734 108.265C285.734 105.266 284.091 103.727 281.944 103.727ZM281.901 111.836C280.38 111.836 279.357 110.629 279.357 108.302C279.357 105.974 280.38 104.818 281.901 104.818C283.421 104.818 284.473 105.982 284.473 108.302C284.473 110.622 283.435 111.836 281.901 111.836Z" fill="#004289"/>
<path d="M291.239 103.727C290.129 103.727 289.308 104.24 288.803 104.991V103.914H287.542V112.754H288.803V107.586C288.803 105.649 289.761 104.825 290.986 104.825C292.406 104.825 293.069 105.678 293.069 107.586V112.754H294.322V107.362C294.322 104.825 293.097 103.734 291.239 103.734V103.727Z" fill="#004289"/>
<path d="M161.229 19.608L151.553 15.5895L161.229 11.5711L159.507 7.4081L149.831 11.4265L153.844 1.72012L149.694 0L145.688 9.70642L141.675 0L137.532 1.72012L141.538 11.4265L131.861 7.4081L130.146 11.5711L139.816 15.5895L130.146 19.608L131.861 23.771L141.538 19.7453L137.532 29.4517L141.682 31.1791L145.688 21.4726L149.694 31.1791L153.844 29.4517L149.831 19.7453L159.507 23.771L161.229 19.608Z" fill="#009FE3"/>
<path d="M98.595 46.703H105.036V29.4512H83.0247V35.262H98.595V46.703Z" fill="#009FE3"/>
<path d="M123.712 46.703H130.146V29.4512H108.135V35.262H123.712V46.703Z" fill="#009FE3"/>
<path d="M81.9872 55.6214H123.712V64.5039H130.146V49.8105H81.9872V55.6214Z" fill="#009FE3"/>
<path d="M97.5574 91.6429H130.139V67.4961H97.5574V91.6429ZM103.999 73.3069H123.712V85.832H103.999V73.3069Z" fill="#009FE3"/>
</g>
<defs>
<clipPath id="clip0_68_314">
<rect width="300" height="116" fill="white"/>
</clipPath>
</defs>
</svg>
