<svg width="12" height="12" viewBox="0 0 12 12" fill="none" xmlns="http://www.w3.org/2000/svg">
<path d="M5.99981 11.6673C5.85804 11.6673 5.73931 11.6194 5.64365 11.5235C5.54787 11.4277 5.49998 11.309 5.49998 11.1673V6.50065H0.833313C0.691646 6.50065 0.572924 6.45271 0.477146 6.35682C0.381258 6.26093 0.333313 6.14215 0.333313 6.00048C0.333313 5.85871 0.381258 5.73998 0.477146 5.64432C0.572924 5.54854 0.691646 5.50065 0.833313 5.50065H5.49998V0.833984C5.49998 0.692318 5.54792 0.573596 5.64381 0.477818C5.7397 0.381929 5.85848 0.333984 6.00015 0.333984C6.14192 0.333984 6.26065 0.381929 6.35631 0.477818C6.45209 0.573596 6.49998 0.692318 6.49998 0.833984V5.50065H11.1666C11.3083 5.50065 11.427 5.5486 11.5228 5.64448C11.6187 5.74037 11.6666 5.85915 11.6666 6.00082C11.6666 6.1426 11.6187 6.26132 11.5228 6.35698C11.427 6.45276 11.3083 6.50065 11.1666 6.50065H6.49998V11.1673C6.49998 11.309 6.45203 11.4277 6.35615 11.5235C6.26026 11.6194 6.14148 11.6673 5.99981 11.6673Z" fill="#191E26"/>
</svg>
