<svg width="297" height="186" viewBox="0 0 297 186" fill="none" xmlns="http://www.w3.org/2000/svg">
<path d="M5.056 10.896C6.368 10.896 7.312 9.968 7.312 8.688C7.312 7.392 6.368 6.464 5.056 6.464C3.76 6.464 2.816 7.392 2.816 8.688C2.816 9.968 3.76 10.896 5.056 10.896ZM5.056 5.376C7.104 5.376 8.56 6.752 8.56 8.688C8.56 10.64 7.104 11.984 5.056 11.984C3.04 11.984 1.584 10.64 1.584 8.688C1.584 6.752 3.04 5.376 5.056 5.376ZM5.696 1.008V3.136H9.232V4.192H0.768V3.136H4.384V1.008H5.696ZM14.256 6.736V7.84H11.904V15.184H10.592V0.848H11.904V6.736H14.256ZM17.1188 5.376C17.1188 6.768 18.1748 7.776 19.5828 7.776C20.9908 7.776 22.0468 6.768 22.0468 5.376C22.0468 3.968 20.9908 2.976 19.5828 2.976C18.1748 2.976 17.1188 3.968 17.1188 5.376ZM23.3268 5.376C23.3268 7.456 21.7268 8.912 19.5828 8.912C17.4388 8.912 15.8388 7.456 15.8388 5.376C15.8388 3.296 17.4388 1.84 19.5828 1.84C21.7268 1.84 23.3268 3.296 23.3268 5.376ZM19.0868 10.32V13.792H27.3428V14.864H17.7748V10.32H19.0868ZM28.7988 4.512H26.7028V6.944H28.7988V8.032H26.7028V11.392H25.3908V0.832H26.7028V3.44H28.7988V4.512ZM36.0716 7.216V10.656C38.6796 10.656 40.5356 10.56 42.6796 10.176L42.8076 11.248C40.5676 11.632 38.6476 11.728 35.9116 11.728H34.7756V2.128H41.7356V3.2H36.0716V6.16H41.2076V7.216H36.0716ZM44.3276 0.832H45.6396V15.168H44.3276V0.832ZM53.6064 2.08V4.64C53.6064 7.28 55.2384 9.904 57.3184 10.896L56.5344 11.952C54.9184 11.12 53.5904 9.392 52.9504 7.36C52.3264 9.488 50.9984 11.28 49.3824 12.16L48.5824 11.12C50.6624 10.064 52.2944 7.312 52.2944 4.64V2.08H53.6064ZM59.0784 0.832H60.4064V15.216H59.0784V8.624H55.9744V7.536H59.0784V5.04H55.9744V3.952H59.0784V0.832ZM64.5971 9.872L64.0851 8.8C66.8371 8.32 69.1411 6.544 69.1411 4.192H64.5171V3.136H69.1411V1.184H70.4691V3.136H75.0771V4.192H70.4691C70.4691 6.544 72.7731 8.32 75.5251 8.8L74.9971 9.872C72.7251 9.408 70.6931 8.192 69.8131 6.352C68.9171 8.192 66.8851 9.408 64.5971 9.872ZM63.3011 12.272H76.3251V13.344H63.3011V12.272ZM86.302 2.592C84.894 2.592 83.902 3.344 83.902 4.464C83.902 5.584 84.894 6.336 86.302 6.336C87.694 6.336 88.686 5.584 88.686 4.464C88.686 3.344 87.694 2.592 86.302 2.592ZM86.302 7.408C84.158 7.408 82.638 6.208 82.638 4.464C82.638 2.704 84.158 1.504 86.302 1.504C88.43 1.504 89.95 2.704 89.95 4.464C89.95 6.208 88.43 7.408 86.302 7.408ZM91.022 8.112L91.134 9.088C89.774 9.328 88.382 9.488 87.022 9.568V14.736H85.71V9.648C84.286 9.712 82.926 9.728 81.742 9.728L81.566 8.624C84.238 8.624 87.87 8.592 91.022 8.112ZM92.062 0.848H93.374V15.2H92.062V0.848ZM99.5648 10.816C100.685 10.816 101.421 9.36 101.421 7.008C101.421 4.704 100.685 3.248 99.5648 3.248C98.4128 3.248 97.6928 4.704 97.6928 7.008C97.6928 9.36 98.4128 10.816 99.5648 10.816ZM104.413 6.416V1.152H105.661V14.48H104.413V7.488H102.605C102.493 10.304 101.325 12.032 99.5648 12.032C97.6928 12.032 96.4928 10.112 96.4928 7.008C96.4928 3.952 97.6928 2.032 99.5648 2.032C101.293 2.032 102.445 3.712 102.605 6.416H104.413ZM107.261 0.832H108.509V15.184H107.261V0.832ZM119.574 3.376V5.04C119.574 7.424 121.254 10.032 123.334 11.024L122.55 12.048C120.95 11.232 119.574 9.52 118.918 7.536C118.294 9.648 116.902 11.488 115.27 12.352L114.502 11.312C116.55 10.304 118.262 7.584 118.262 5.04V3.376H115.014V2.304H122.838V3.376H119.574ZM125.126 0.832H126.438V15.2H125.126V7.12H122.022V6.048H125.126V0.832ZM131.188 3.328V10.48H135.204V3.328H131.188ZM129.908 11.536V2.272H136.484V11.536H129.908ZM142.74 6.56V7.664H140.372V15.184H139.06V0.848H140.372V6.56H142.74ZM145.971 3.296V10.512C148.515 10.512 150.355 10.4 152.435 10.032L152.579 11.12C150.387 11.536 148.499 11.632 145.795 11.632H144.659V2.208H151.331V3.296H145.971ZM157.459 6.496V7.584H155.091V15.216H153.779V0.832H155.091V6.496H157.459ZM163.426 1.888C165.666 1.888 167.266 3.248 167.266 5.264C167.266 7.264 165.666 8.64 163.426 8.64C161.202 8.64 159.586 7.264 159.586 5.264C159.586 3.248 161.202 1.888 163.426 1.888ZM163.426 3.008C161.954 3.008 160.866 3.92 160.866 5.264C160.866 6.592 161.954 7.52 163.426 7.52C164.914 7.52 165.986 6.592 165.986 5.264C165.986 3.92 164.914 3.008 163.426 3.008ZM169.154 0.832H170.466V15.216H169.154V0.832ZM159.026 12.064L158.866 10.96C161.474 10.96 165.074 10.944 168.21 10.464L168.322 11.44C165.09 12.032 161.618 12.064 159.026 12.064ZM187.131 13.92V10.992H179.979V13.92H187.131ZM190.091 7.52H184.203V9.936H188.411V14.976H178.683V9.936H182.891V7.52H177.051V6.464H181.067C181.531 4.736 181.627 3.456 181.659 2.576H178.315V1.52H182.923V1.936C182.923 2.72 182.923 4.304 182.395 6.464H186.779C187.163 4.72 187.227 3.456 187.243 2.576H183.995V1.52H188.523V2.08C188.523 2.944 188.523 4.416 188.075 6.464H190.091V7.52ZM198.266 2.064C195.914 2.064 194.57 2.608 194.57 3.568C194.57 4.528 195.914 5.072 198.266 5.072C200.618 5.072 201.962 4.528 201.962 3.568C201.962 2.608 200.618 2.064 198.266 2.064ZM198.266 6.048C195.114 6.048 193.226 5.184 193.226 3.568C193.226 1.952 195.114 1.072 198.266 1.072C201.418 1.072 203.306 1.952 203.306 3.568C203.306 5.184 201.418 6.048 198.266 6.048ZM194.666 12.544V14H203.53V15.024H193.386V11.584H201.802V10.304H193.338V9.312H203.098V12.544H194.666ZM191.77 7.024H204.762V8.08H191.77V7.024ZM223.106 7.696H217.218V10.256H221.394V15.152H220.082V11.312H211.554V10.256H215.906V7.696H210.082V6.624H214.05C214.514 4.8 214.626 3.456 214.658 2.544H211.346V1.488H215.938V1.904C215.938 2.704 215.938 4.352 215.346 6.624H219.746C220.178 4.784 220.242 3.456 220.258 2.544H217.01V1.488H221.538V2.048C221.538 2.928 221.538 4.48 221.042 6.624H223.106V7.696ZM237.825 7.696H231.937V10.256H236.113V15.152H234.801V11.312H226.273V10.256H230.625V7.696H224.801V6.624H228.769C229.233 4.8 229.345 3.456 229.377 2.544H226.065V1.488H230.657V1.904C230.657 2.704 230.657 4.352 230.065 6.624H234.465C234.897 4.784 234.961 3.456 234.977 2.544H231.729V1.488H236.257V2.048C236.257 2.928 236.257 4.48 235.761 6.624H237.825V7.696ZM254.586 4.256V5.312H244.842V1.04H246.138V4.256H254.586ZM256.106 7.632H250.234V9.136H254.458V12.448H246.042V14H254.938V15.024H244.73V11.488H253.146V10.144H244.698V9.136H248.922V7.632H243.098V6.56H256.106V7.632ZM259.641 7.184V10.656C262.089 10.656 263.833 10.56 265.897 10.192L266.025 11.28C263.865 11.664 262.041 11.744 259.449 11.744H258.345V6.128H263.449V3.232H258.313V2.16H264.729V7.184H259.641ZM268.313 0.815999H269.625V15.2H268.313V7.424H265.577V6.352H268.313V0.815999ZM284.418 6.592L284.562 7.648C282.594 8.048 280.898 8.16 277.89 8.16H276.77V1.792H283.09V2.848H278.082V7.072C280.914 7.072 282.546 6.96 284.418 6.592ZM279.522 10.768V13.92H285.954V10.768H279.522ZM278.242 14.976V9.728H287.25V14.976H278.242ZM289.378 4.336V5.424H287.25V8.96H285.938V0.815999H287.25V4.336H289.378ZM7.328 26.384C5.072 26.384 3.632 27.056 3.632 28.192C3.632 29.328 5.072 29.984 7.328 29.984C9.584 29.984 11.024 29.328 11.024 28.192C11.024 27.056 9.584 26.384 7.328 26.384ZM7.328 31.04C4.256 31.04 2.288 29.984 2.288 28.192C2.288 26.4 4.256 25.328 7.328 25.328C10.4 25.328 12.368 26.4 12.368 28.192C12.368 29.984 10.4 31.04 7.328 31.04ZM3.824 34.704V37.792H12.384V38.864H2.512V34.704H3.824ZM0.832 32.384H13.808V33.44H0.832V32.384ZM20.9529 27.648V34.56C22.8729 34.544 24.2329 34.464 25.8009 34.128L25.9129 35.216C24.2009 35.584 22.7449 35.648 20.6009 35.648H19.6569V26.576H25.0009V27.648H20.9529ZM30.0729 24.832H31.3369V39.184H30.0729V31.664H28.0409V38.464H26.8089V25.152H28.0409V30.592H30.0729V24.832ZM42.3756 26.352V27.408H33.9116V26.352H37.4796V24.752H38.7916V26.352H42.3756ZM35.9596 30.736C35.9596 31.696 36.8236 32.32 38.1356 32.32C39.4476 32.32 40.3276 31.696 40.3276 30.736C40.3276 29.792 39.4476 29.168 38.1356 29.168C36.8236 29.168 35.9596 29.792 35.9596 30.736ZM41.5756 30.736C41.5756 32.32 40.1836 33.328 38.1356 33.328C36.1036 33.328 34.7116 32.32 34.7116 30.736C34.7116 29.168 36.1036 28.144 38.1356 28.144C40.1836 28.144 41.5756 29.168 41.5756 30.736ZM35.6876 35.664V34.592H44.9996V39.2H43.6876V35.664H35.6876ZM47.1276 28.8V29.888H44.9996V33.808H43.6876V24.848H44.9996V28.8H47.1276ZM61.2645 26.768V27.824H52.5445V26.768H56.2565V24.976H57.5685V26.768H61.2645ZM59.1045 31.312C59.1045 30.304 58.2085 29.648 56.9125 29.648C55.6325 29.648 54.7365 30.304 54.7365 31.312C54.7365 32.32 55.6325 32.992 56.9125 32.992C58.2085 32.992 59.1045 32.32 59.1045 31.312ZM53.4885 31.312C53.4885 29.696 54.8965 28.624 56.9125 28.624C58.9285 28.624 60.3365 29.696 60.3365 31.312C60.3365 32.944 58.9285 34 56.9125 34C54.8965 34 53.4885 32.944 53.4885 31.312ZM52.4325 36.368L52.2405 35.264C54.9605 35.264 58.5285 35.248 61.6325 34.832L61.7285 35.808C58.5285 36.352 55.0725 36.368 52.4325 36.368ZM62.5445 24.848H63.8565V39.184H62.5445V24.848ZM72.7833 31.04V26.976H68.7513V31.04H72.7833ZM74.0633 25.92V32.096H67.4713V25.92H74.0633ZM73.4393 38.144C75.5673 38.144 76.8633 37.52 76.8633 36.496C76.8633 35.456 75.5673 34.848 73.4393 34.848C71.3113 34.848 70.0312 35.456 70.0312 36.496C70.0312 37.52 71.3113 38.144 73.4393 38.144ZM73.4393 33.808C76.3513 33.808 78.1753 34.784 78.1753 36.496C78.1753 38.192 76.3513 39.184 73.4393 39.184C70.5433 39.184 68.7193 38.192 68.7193 36.496C68.7193 34.784 70.5433 33.808 73.4393 33.808ZM78.0153 28.416H80.1433V29.504H78.0153V33.312H76.7033V24.848H78.0153V28.416ZM89.918 31.776L89.294 32.8C87.662 32.272 86.43 31.136 85.822 29.712C85.214 31.344 83.918 32.624 82.206 33.232L81.534 32.192C83.694 31.44 85.134 29.584 85.134 27.52V26.96H81.918V25.904H89.614V26.96H86.446V27.52C86.446 29.392 87.806 31.072 89.918 31.776ZM88.174 38.128C90.286 38.128 91.582 37.536 91.582 36.512C91.582 35.504 90.286 34.912 88.174 34.912C86.03 34.912 84.75 35.504 84.75 36.512C84.75 37.536 86.03 38.128 88.174 38.128ZM88.174 33.872C91.086 33.872 92.894 34.848 92.894 36.512C92.894 38.192 91.086 39.168 88.174 39.168C85.23 39.168 83.438 38.192 83.438 36.512C83.438 34.848 85.23 33.872 88.174 33.872ZM92.734 28.464H94.862V29.568H92.734V33.504H91.422V24.848H92.734V28.464ZM104.829 26.352V27.408H96.3648V26.352H99.9328V24.752H101.245V26.352H104.829ZM98.4128 30.736C98.4128 31.696 99.2768 32.32 100.589 32.32C101.901 32.32 102.781 31.696 102.781 30.736C102.781 29.792 101.901 29.168 100.589 29.168C99.2768 29.168 98.4128 29.792 98.4128 30.736ZM104.029 30.736C104.029 32.32 102.637 33.328 100.589 33.328C98.5568 33.328 97.1648 32.32 97.1648 30.736C97.1648 29.168 98.5568 28.144 100.589 28.144C102.637 28.144 104.029 29.168 104.029 30.736ZM98.1408 35.664V34.592H107.453V39.2H106.141V35.664H98.1408ZM109.581 28.8V29.888H107.453V33.808H106.141V24.848H107.453V28.8H109.581ZM120.06 29.76V33.232H118.812V25.12H120.06V28.688H121.884V24.848H123.148V33.696H121.884V29.76H120.06ZM118.22 31.568L117.516 32.576C116.172 32.032 115.196 31.008 114.684 29.792C114.172 31.136 113.148 32.352 111.756 32.976L111.052 31.952C112.924 31.12 114.044 29.264 114.044 27.664V25.728H115.308V27.664C115.308 29.248 116.38 30.864 118.22 31.568ZM118.411 38.16C120.588 38.16 121.916 37.584 121.916 36.592C121.916 35.6 120.588 35.04 118.411 35.04C116.268 35.04 114.924 35.6 114.924 36.592C114.924 37.584 116.268 38.16 118.411 38.16ZM118.411 34.016C121.372 34.016 123.212 34.96 123.212 36.592C123.212 38.224 121.372 39.168 118.411 39.168C115.468 39.168 113.628 38.224 113.628 36.592C113.628 34.96 115.468 34.016 118.411 34.016ZM137.194 28.608V29.664H127.482V25.312H137.05V26.368H128.794V28.608H137.194ZM128.634 36.512V37.984H137.498V39.008H127.354V35.536H135.77V34.16H127.306V33.136H137.066V36.512H128.634ZM125.754 30.816H138.746V31.888H125.754V30.816ZM150.905 24.832H152.217V39.216H150.905V24.832ZM144.649 25.936C146.777 25.936 148.297 27.888 148.297 30.944C148.297 34 146.777 35.952 144.649 35.952C142.521 35.952 141.001 34 141.001 30.944C141.001 27.888 142.521 25.936 144.649 25.936ZM144.649 27.12C143.241 27.12 142.249 28.624 142.249 30.944C142.249 33.28 143.241 34.784 144.649 34.784C146.041 34.784 147.033 33.28 147.033 30.944C147.033 28.624 146.041 27.12 144.649 27.12ZM159.41 25.904H166.034C166.034 29.552 163.49 32.224 159.33 33.456L158.802 32.4C162.21 31.392 164.37 29.44 164.61 26.96H159.41V25.904ZM165.41 38.128C167.474 38.128 168.786 37.472 168.786 36.384C168.786 35.28 167.474 34.624 165.41 34.624C163.346 34.624 162.034 35.28 162.034 36.384C162.034 37.472 163.346 38.128 165.41 38.128ZM165.41 33.6C168.242 33.6 170.082 34.64 170.082 36.384C170.082 38.112 168.242 39.168 165.41 39.168C162.578 39.168 160.738 38.112 160.738 36.384C160.738 34.64 162.578 33.6 165.41 33.6ZM169.906 28.544H172.034V29.632H169.906V33.408H168.594V24.832H169.906V28.544ZM181.009 33.312H183.921V24.832H185.233V35.76H183.921V34.288H181.009V33.312ZM178.081 26.384C176.721 26.384 175.793 26.992 175.793 27.904C175.793 28.832 176.721 29.44 178.081 29.44C179.441 29.44 180.369 28.832 180.369 27.904C180.369 26.992 179.441 26.384 178.081 26.384ZM178.081 30.416C175.985 30.416 174.545 29.44 174.545 27.904C174.545 26.4 175.985 25.408 178.081 25.408C180.177 25.408 181.617 26.4 181.617 27.904C181.617 29.44 180.177 30.416 178.081 30.416ZM177.569 35.248V32.48C176.145 32.544 174.769 32.56 173.585 32.56L173.409 31.472C176.065 31.472 179.617 31.44 182.657 31.056L182.769 32C181.505 32.192 180.177 32.336 178.881 32.416V35.248H177.569ZM176.769 37.792H185.601V38.864H175.457V34.688H176.769V37.792ZM195.359 36.288H201.231V37.376H188.191V36.288H194.031V32.608H189.855V25.984H199.583V27.056H191.167V31.552H199.727V32.608H195.359V36.288ZM217 33.68V31.04H214.632V29.968H217V28.464H214.632V27.392H217V24.848H218.328V33.68H217ZM209.624 26.976V31.712C210.328 31.696 211.064 31.664 211.784 31.632V26.976H209.624ZM214.936 31.376L215.016 32.352C212.248 32.784 209.016 32.832 206.696 32.832L206.552 31.744C207.096 31.744 207.72 31.744 208.36 31.728V26.976H206.936V25.92H214.488V26.976H213.064V31.552C213.704 31.504 214.344 31.456 214.936 31.376ZM213.592 38.144C215.768 38.144 217.064 37.568 217.064 36.56C217.064 35.584 215.768 34.992 213.592 34.992C211.416 34.992 210.12 35.584 210.12 36.56C210.12 37.568 211.416 38.144 213.592 38.144ZM213.592 33.984C216.552 33.984 218.376 34.912 218.376 36.56C218.376 38.224 216.552 39.168 213.592 39.168C210.616 39.168 208.808 38.224 208.808 36.56C208.808 34.912 210.616 33.984 213.592 33.984ZM229.623 31.872L229.015 32.896C227.383 32.384 226.119 31.344 225.479 29.984C224.871 31.504 223.575 32.688 221.895 33.264L221.239 32.224C223.367 31.568 224.807 29.84 224.807 27.92V27.632H221.623V26.576H224.807V24.752H226.119V26.576H229.287V27.632H226.119V27.92C226.119 29.664 227.511 31.248 229.623 31.872ZM227.799 38.144C229.911 38.144 231.207 37.568 231.207 36.576C231.207 35.584 229.911 35.008 227.799 35.008C225.655 35.008 224.375 35.584 224.375 36.576C224.375 37.568 225.655 38.144 227.799 38.144ZM227.799 33.984C230.727 33.984 232.519 34.912 232.519 36.576C232.519 38.224 230.727 39.152 227.799 39.152C224.839 39.152 223.063 38.224 223.063 36.576C223.063 34.912 224.839 33.984 227.799 33.984ZM232.359 28.544H234.487V29.632H232.359V33.632H231.047V24.832H232.359V28.544ZM239.19 34.816C240.31 34.816 241.046 33.36 241.046 31.008C241.046 28.704 240.31 27.248 239.19 27.248C238.038 27.248 237.318 28.704 237.318 31.008C237.318 33.36 238.038 34.816 239.19 34.816ZM244.038 30.416V25.152H245.286V38.48H244.038V31.488H242.23C242.118 34.304 240.95 36.032 239.19 36.032C237.318 36.032 236.118 34.112 236.118 31.008C236.118 27.952 237.318 26.032 239.19 26.032C240.918 26.032 242.07 27.712 242.23 30.416H244.038ZM246.886 24.832H248.134V39.184H246.886V24.832ZM257.039 27.072V31.728H264.383V27.072H257.039ZM261.391 36.256H267.247V37.344H254.239V36.256H260.063V32.768H255.775V26.032H265.663V32.768H261.391V36.256ZM272.861 26.72C271.469 26.72 270.445 27.664 270.445 28.992C270.445 30.32 271.469 31.28 272.861 31.28C274.269 31.28 275.293 30.32 275.293 28.992C275.293 27.664 274.269 26.72 272.861 26.72ZM279.453 27.904H276.365C276.477 28.24 276.541 28.608 276.541 28.992C276.541 29.376 276.477 29.728 276.381 30.048H279.453V27.904ZM279.453 31.12H275.805C275.133 31.904 274.093 32.384 272.861 32.384C270.749 32.384 269.197 30.976 269.197 28.992C269.197 27.008 270.749 25.616 272.861 25.616C274.077 25.616 275.101 26.08 275.757 26.832H279.453V24.848H280.781V33.008H279.453V31.12ZM279.213 33.472V34.416C279.213 35.92 280.269 37.424 282.109 38.048L281.453 39.024C280.061 38.496 279.037 37.52 278.557 36.304C278.109 37.472 277.245 38.576 275.917 39.136C274.541 38.608 273.677 37.536 273.245 36.352C272.733 37.504 271.757 38.496 270.413 39.024L269.757 38.048C271.565 37.376 272.637 35.824 272.637 34.416V33.472H273.901V34.416C273.901 35.712 274.557 37.088 275.901 37.872C277.261 37.008 277.933 35.552 277.933 34.416V33.472H279.213ZM2.768 51.296V58.512C5.312 58.512 7.152 58.4 9.232 58.032L9.376 59.12C7.184 59.536 5.296 59.632 2.592 59.632H1.456V50.208H8.128V51.296H2.768ZM14.256 54.496V55.584H11.888V63.216H10.576V48.832H11.888V54.496H14.256ZM16.9428 62.208C16.3668 62.208 15.8868 61.76 15.8868 61.104C15.8868 60.432 16.3668 59.968 16.9428 59.968C17.5188 59.968 17.9988 60.432 17.9988 61.104C17.9988 61.76 17.5188 62.208 16.9428 62.208ZM32.11 50.352V51.408H23.646V50.352H27.214V48.704H28.526V50.352H32.11ZM25.694 54.688C25.694 55.632 26.558 56.256 27.87 56.256C29.182 56.256 30.062 55.632 30.062 54.688C30.062 53.744 29.182 53.12 27.87 53.12C26.558 53.12 25.694 53.744 25.694 54.688ZM31.31 54.688C31.31 56.24 29.918 57.232 27.87 57.232C25.822 57.232 24.446 56.24 24.446 54.688C24.446 53.12 25.822 52.128 27.87 52.128C29.918 52.128 31.31 53.12 31.31 54.688ZM27.006 59.328V61.936H33.438V59.328H27.006ZM25.726 62.992V58.288H34.734V62.992H25.726ZM36.862 52.656V53.744H34.734V57.472H33.422V48.848H34.734V52.656H36.862ZM38.6528 50.544H41.8368C41.8368 53.616 41.4368 56.992 39.3728 59.776L38.3488 59.2C40.1248 56.912 40.6208 54.288 40.7168 51.616H38.6528V50.544ZM46.6528 54.464V49.2H47.8848V62.448H46.6528V55.536H44.6528C44.3168 57.328 43.7088 59.136 42.5568 60.704L41.5328 60.112C43.4848 57.552 43.8208 54.32 43.8688 51.616H42.3168V50.544H45.0048C45.0048 51.728 44.9728 53.072 44.8128 54.464H46.6528ZM49.3088 48.832H50.5568V63.168H49.3088V48.832ZM63.0936 50.048C60.8056 50.048 59.3976 50.656 59.3976 51.664C59.3976 52.688 60.8056 53.28 63.0936 53.28C65.3816 53.28 66.7896 52.688 66.7896 51.664C66.7896 50.656 65.3816 50.048 63.0936 50.048ZM63.0936 54.304C59.9736 54.304 58.0536 53.344 58.0536 51.664C58.0536 50 59.9736 49.04 63.0936 49.04C66.2136 49.04 68.1336 50 68.1336 51.664C68.1336 53.344 66.2136 54.304 63.0936 54.304ZM63.7656 58.704V59.152C63.7656 60.72 65.9736 61.872 68.5976 62.128L68.1656 63.136C65.9256 62.864 63.9256 62.016 63.0936 60.656C62.2136 62 60.2296 62.88 57.9896 63.136L57.5576 62.128C60.1496 61.856 62.4056 60.688 62.4056 59.152V58.704H63.7656ZM56.6136 55.392H69.6216V56.464H63.7336V58.048H62.4376V56.464H56.6136V55.392ZM81.4604 51.696V51.344H72.7084V50.272H82.7724V51.696C82.7724 53.472 82.7724 55.44 82.2284 58.336L80.9164 58.192C81.4604 55.44 81.4604 53.424 81.4604 51.696ZM77.7004 60.096H84.3244V61.168H71.3484V60.096H76.3884V54.96H77.7004V60.096ZM86.4031 65.04L86.0511 64.176C87.0591 63.728 87.6511 62.944 87.6511 62C87.5871 62.016 87.5391 62.016 87.4751 62.016C86.9151 62.016 86.4031 61.664 86.4031 60.992C86.4031 60.368 86.9151 59.968 87.5071 59.968C88.2751 59.968 88.7391 60.624 88.7391 61.696C88.7391 63.232 87.8431 64.432 86.4031 65.04ZM95.5224 59.712V58.656H105.458V63.2H104.146V59.712H95.5224ZM97.0264 50.464V53.248H104.098V50.464H97.0264ZM101.234 56.112H107.058V57.168H94.0664V56.112H99.9224V54.288H95.7464V49.424H105.394V54.288H101.234V56.112ZM116.433 52.912H119.297V48.832H120.625V57.536H119.297V54H116.433V52.912ZM117.297 55.904L116.673 56.928C115.025 56.416 113.729 55.344 113.073 53.952C112.465 55.52 111.169 56.736 109.473 57.296L108.833 56.288C110.945 55.568 112.385 53.824 112.385 51.888V51.616H109.201V50.56H112.385V48.752H113.697V50.56H116.865V51.616H113.697V51.888C113.697 53.68 115.185 55.28 117.297 55.904ZM115.873 62.144C118.049 62.144 119.361 61.536 119.361 60.528C119.361 59.536 118.065 58.928 115.873 58.928C113.713 58.928 112.417 59.536 112.417 60.528C112.417 61.536 113.713 62.144 115.873 62.144ZM115.873 57.904C118.849 57.904 120.673 58.864 120.673 60.528C120.673 62.208 118.849 63.168 115.873 63.168C112.929 63.168 111.105 62.208 111.105 60.528C111.105 58.864 112.929 57.904 115.873 57.904ZM128.608 57.296L127.664 56.512C129.552 54.992 130.336 53.232 130.496 51.008H128.304V49.952H131.744C131.744 51.008 131.648 52 131.408 52.944H133.968V48.848H135.28V58.656H133.968V54.016H131.056C130.56 55.216 129.776 56.304 128.608 57.296ZM124 49.952H127.76C127.76 52.8 126.864 54.832 124.448 56.544L123.6 55.712C125.456 54.464 126.32 53.088 126.512 51.008H124V49.952ZM131.296 57.424V57.984C131.296 60.032 133.504 61.616 136.064 62.064L135.52 63.104C133.408 62.688 131.488 61.584 130.64 59.92C129.792 61.584 127.856 62.72 125.712 63.136L125.184 62.096C127.744 61.648 129.984 60.064 129.984 57.984V57.424H131.296ZM141.817 55.808H154.777V56.864H141.817V55.808ZM148.297 58.064C151.369 58.064 153.209 58.976 153.209 60.624C153.209 62.256 151.369 63.184 148.297 63.184C145.241 63.184 143.385 62.256 143.385 60.624C143.385 58.976 145.241 58.064 148.297 58.064ZM148.297 59.072C146.041 59.072 144.713 59.648 144.713 60.624C144.713 61.6 146.041 62.16 148.297 62.16C150.553 62.16 151.881 61.6 151.881 60.624C151.881 59.648 150.553 59.072 148.297 59.072ZM148.297 49.2C151.401 49.2 153.337 50.208 153.337 51.936C153.337 53.648 151.401 54.656 148.297 54.656C145.209 54.656 143.257 53.648 143.257 51.936C143.257 50.208 145.209 49.2 148.297 49.2ZM148.297 50.224C146.025 50.224 144.601 50.864 144.601 51.936C144.601 52.992 146.025 53.632 148.297 53.632C150.569 53.632 151.993 52.992 151.993 51.936C151.993 50.864 150.569 50.224 148.297 50.224ZM164.056 57.312H166.968V48.832H168.28V59.76H166.968V58.288H164.056V57.312ZM161.128 50.384C159.768 50.384 158.84 50.992 158.84 51.904C158.84 52.832 159.768 53.44 161.128 53.44C162.488 53.44 163.416 52.832 163.416 51.904C163.416 50.992 162.488 50.384 161.128 50.384ZM161.128 54.416C159.032 54.416 157.592 53.44 157.592 51.904C157.592 50.4 159.032 49.408 161.128 49.408C163.224 49.408 164.664 50.4 164.664 51.904C164.664 53.44 163.224 54.416 161.128 54.416ZM160.616 59.248V56.48C159.192 56.544 157.816 56.56 156.632 56.56L156.456 55.472C159.112 55.472 162.664 55.44 165.704 55.056L165.816 56C164.552 56.192 163.224 56.336 161.928 56.416V59.248H160.616ZM159.816 61.792H168.648V62.864H158.504V58.688H159.816V61.792ZM175.462 58.896C176.774 58.896 177.718 57.968 177.718 56.688C177.718 55.392 176.774 54.464 175.462 54.464C174.166 54.464 173.222 55.392 173.222 56.688C173.222 57.968 174.166 58.896 175.462 58.896ZM175.462 53.376C177.51 53.376 178.966 54.752 178.966 56.688C178.966 58.64 177.51 59.984 175.462 59.984C173.446 59.984 171.99 58.64 171.99 56.688C171.99 54.752 173.446 53.376 175.462 53.376ZM176.102 49.008V51.136H179.638V52.192H171.174V51.136H174.79V49.008H176.102ZM184.662 54.736V55.84H182.31V63.184H180.998V48.848H182.31V54.736H184.662ZM193.077 56.224H196.485V53.344H193.077V56.224ZM191.781 58.512V51.28H187.829V58.512H191.781ZM196.485 48.832H197.797V63.216H196.485V57.296H193.077V59.552H186.549V50.24H193.077V52.272H196.485V48.832ZM204.9 58.896C206.212 58.896 207.156 57.968 207.156 56.688C207.156 55.392 206.212 54.464 204.9 54.464C203.604 54.464 202.66 55.392 202.66 56.688C202.66 57.968 203.604 58.896 204.9 58.896ZM204.9 53.376C206.948 53.376 208.404 54.752 208.404 56.688C208.404 58.64 206.948 59.984 204.9 59.984C202.884 59.984 201.428 58.64 201.428 56.688C201.428 54.752 202.884 53.376 204.9 53.376ZM205.54 49.008V51.136H209.076V52.192H200.612V51.136H204.228V49.008H205.54ZM214.1 54.736V55.84H211.748V63.184H210.436V48.848H211.748V54.736H214.1ZM216.963 53.376C216.963 54.768 218.019 55.776 219.427 55.776C220.835 55.776 221.891 54.768 221.891 53.376C221.891 51.968 220.835 50.976 219.427 50.976C218.019 50.976 216.963 51.968 216.963 53.376ZM223.171 53.376C223.171 55.456 221.571 56.912 219.427 56.912C217.283 56.912 215.683 55.456 215.683 53.376C215.683 51.296 217.283 49.84 219.427 49.84C221.571 49.84 223.171 51.296 223.171 53.376ZM218.931 58.32V61.792H227.187V62.864H217.619V58.32H218.931ZM228.643 52.512H226.547V54.944H228.643V56.032H226.547V59.392H225.235V48.832H226.547V51.44H228.643V52.512ZM235.915 55.216V58.656C238.523 58.656 240.379 58.56 242.523 58.176L242.651 59.248C240.411 59.632 238.491 59.728 235.755 59.728H234.619V50.128H241.579V51.2H235.915V54.16H241.051V55.216H235.915ZM244.171 48.832H245.483V63.168H244.171V48.832ZM253.45 50.08V52.64C253.45 55.28 255.082 57.904 257.162 58.896L256.378 59.952C254.762 59.12 253.434 57.392 252.794 55.36C252.17 57.488 250.842 59.28 249.226 60.16L248.426 59.12C250.506 58.064 252.138 55.312 252.138 52.64V50.08H253.45ZM258.922 48.832H260.25V63.216H258.922V56.624H255.818V55.536H258.922V53.04H255.818V51.952H258.922V48.832ZM264.441 57.872L263.929 56.8C266.681 56.32 268.985 54.544 268.985 52.192H264.361V51.136H268.985V49.184H270.313V51.136H274.921V52.192H270.313C270.313 54.544 272.617 56.32 275.369 56.8L274.841 57.872C272.569 57.408 270.537 56.192 269.657 54.352C268.761 56.192 266.729 57.408 264.441 57.872ZM263.145 60.272H276.169V61.344H263.145V60.272ZM286.146 50.592C284.738 50.592 283.746 51.344 283.746 52.464C283.746 53.584 284.738 54.336 286.146 54.336C287.538 54.336 288.53 53.584 288.53 52.464C288.53 51.344 287.538 50.592 286.146 50.592ZM286.146 55.408C284.002 55.408 282.482 54.208 282.482 52.464C282.482 50.704 284.002 49.504 286.146 49.504C288.274 49.504 289.794 50.704 289.794 52.464C289.794 54.208 288.274 55.408 286.146 55.408ZM290.866 56.112L290.978 57.088C289.618 57.328 288.226 57.488 286.866 57.568V62.736H285.554V57.648C284.13 57.712 282.77 57.728 281.586 57.728L281.41 56.624C284.082 56.624 287.714 56.592 290.866 56.112ZM291.906 48.848H293.218V63.2H291.906V48.848ZM4.096 82.816C5.216 82.816 5.952 81.36 5.952 79.008C5.952 76.704 5.216 75.248 4.096 75.248C2.944 75.248 2.224 76.704 2.224 79.008C2.224 81.36 2.944 82.816 4.096 82.816ZM8.944 78.416V73.152H10.192V86.48H8.944V79.488H7.136C7.024 82.304 5.856 84.032 4.096 84.032C2.224 84.032 1.024 82.112 1.024 79.008C1.024 75.952 2.224 74.032 4.096 74.032C5.824 74.032 6.976 75.712 7.136 78.416H8.944ZM11.792 72.832H13.04V87.184H11.792V72.832ZM24.1049 75.376V77.04C24.1049 79.424 25.7849 82.032 27.8649 83.024L27.0809 84.048C25.4809 83.232 24.1049 81.52 23.4489 79.536C22.8249 81.648 21.4329 83.488 19.8009 84.352L19.0329 83.312C21.0809 82.304 22.7929 79.584 22.7929 77.04V75.376H19.5449V74.304H27.3689V75.376H24.1049ZM29.6569 72.832H30.9689V87.2H29.6569V79.12H26.5529V78.048H29.6569V72.832ZM35.7196 75.328V82.48H39.7356V75.328H35.7196ZM34.4396 83.536V74.272H41.0156V83.536H34.4396ZM47.2716 78.56V79.664H44.9036V87.184H43.5916V72.848H44.9036V78.56H47.2716ZM50.5024 75.296V82.512C53.0464 82.512 54.8864 82.4 56.9664 82.032L57.1104 83.12C54.9184 83.536 53.0304 83.632 50.3264 83.632H49.1904V74.208H55.8624V75.296H50.5024ZM61.9904 78.496V79.584H59.6224V87.216H58.3104V72.832H59.6224V78.496H61.9904ZM67.9571 73.888C70.1971 73.888 71.7971 75.248 71.7971 77.264C71.7971 79.264 70.1971 80.64 67.9571 80.64C65.7331 80.64 64.1171 79.264 64.1171 77.264C64.1171 75.248 65.7331 73.888 67.9571 73.888ZM67.9571 75.008C66.4851 75.008 65.3971 75.92 65.3971 77.264C65.3971 78.592 66.4851 79.52 67.9571 79.52C69.4451 79.52 70.5171 78.592 70.5171 77.264C70.5171 75.92 69.4451 75.008 67.9571 75.008ZM73.6851 72.832H74.9971V87.216H73.6851V72.832ZM63.5571 84.064L63.3971 82.96C66.0051 82.96 69.6051 82.944 72.7411 82.464L72.8531 83.44C69.6211 84.032 66.1491 84.064 63.5571 84.064ZM91.662 85.92V82.992H84.51V85.92H91.662ZM94.622 79.52H88.734V81.936H92.942V86.976H83.214V81.936H87.422V79.52H81.582V78.464H85.598C86.062 76.736 86.158 75.456 86.19 74.576H82.846V73.52H87.454V73.936C87.454 74.72 87.454 76.304 86.926 78.464H91.31C91.694 76.72 91.758 75.456 91.774 74.576H88.526V73.52H93.054V74.08C93.054 74.944 93.054 76.416 92.606 78.464H94.622V79.52ZM102.797 74.064C100.445 74.064 99.1008 74.608 99.1008 75.568C99.1008 76.528 100.445 77.072 102.797 77.072C105.149 77.072 106.493 76.528 106.493 75.568C106.493 74.608 105.149 74.064 102.797 74.064ZM102.797 78.048C99.6448 78.048 97.7568 77.184 97.7568 75.568C97.7568 73.952 99.6448 73.072 102.797 73.072C105.949 73.072 107.837 73.952 107.837 75.568C107.837 77.184 105.949 78.048 102.797 78.048ZM99.1968 84.544V86H108.061V87.024H97.9168V83.584H106.333V82.304H97.8688V81.312H107.629V84.544H99.1968ZM96.3008 79.024H109.293V80.08H96.3008V79.024ZM127.638 79.696H121.75V82.256H125.926V87.152H124.614V83.312H116.086V82.256H120.438V79.696H114.614V78.624H118.582C119.046 76.8 119.158 75.456 119.19 74.544H115.878V73.488H120.47V73.904C120.47 74.704 120.47 76.352 119.878 78.624H124.278C124.71 76.784 124.774 75.456 124.79 74.544H121.542V73.488H126.07V74.048C126.07 74.928 126.07 76.48 125.574 78.624H127.638V79.696ZM142.356 79.696H136.468V82.256H140.644V87.152H139.332V83.312H130.804V82.256H135.156V79.696H129.332V78.624H133.3C133.764 76.8 133.876 75.456 133.908 74.544H130.596V73.488H135.188V73.904C135.188 74.704 135.188 76.352 134.596 78.624H138.996C139.428 76.784 139.492 75.456 139.508 74.544H136.26V73.488H140.788V74.048C140.788 74.928 140.788 76.48 140.292 78.624H142.356V79.696ZM159.117 76.256V77.312H149.373V73.04H150.669V76.256H159.117ZM160.637 79.632H154.765V81.136H158.989V84.448H150.573V86H159.469V87.024H149.261V83.488H157.677V82.144H149.229V81.136H153.453V79.632H147.629V78.56H160.637V79.632ZM164.172 79.184V82.656C166.62 82.656 168.364 82.56 170.428 82.192L170.556 83.28C168.396 83.664 166.572 83.744 163.98 83.744H162.876V78.128H167.98V75.232H162.844V74.16H169.26V79.184H164.172ZM172.844 72.816H174.156V87.2H172.844V79.424H170.108V78.352H172.844V72.816ZM188.949 78.592L189.093 79.648C187.125 80.048 185.429 80.16 182.421 80.16H181.301V73.792H187.621V74.848H182.613V79.072C185.445 79.072 187.077 78.96 188.949 78.592ZM184.053 82.768V85.92H190.485V82.768H184.053ZM182.773 86.976V81.728H191.781V86.976H182.773ZM193.909 76.336V77.424H191.781V80.96H190.469V72.816H191.781V76.336H193.909ZM201.844 74.384C199.588 74.384 198.148 75.056 198.148 76.192C198.148 77.328 199.588 77.984 201.844 77.984C204.1 77.984 205.54 77.328 205.54 76.192C205.54 75.056 204.1 74.384 201.844 74.384ZM201.844 79.04C198.772 79.04 196.804 77.984 196.804 76.192C196.804 74.4 198.772 73.328 201.844 73.328C204.916 73.328 206.884 74.4 206.884 76.192C206.884 77.984 204.916 79.04 201.844 79.04ZM198.34 82.704V85.792H206.9V86.864H197.028V82.704H198.34ZM195.348 80.384H208.324V81.44H195.348V80.384ZM215.469 75.648V82.56C217.389 82.544 218.749 82.464 220.317 82.128L220.429 83.216C218.717 83.584 217.261 83.648 215.117 83.648H214.173V74.576H219.517V75.648H215.469ZM224.589 72.832H225.853V87.184H224.589V79.664H222.557V86.464H221.325V73.152H222.557V78.592H224.589V72.832ZM236.891 74.352V75.408H228.427V74.352H231.995V72.752H233.307V74.352H236.891ZM230.475 78.736C230.475 79.696 231.339 80.32 232.651 80.32C233.963 80.32 234.843 79.696 234.843 78.736C234.843 77.792 233.963 77.168 232.651 77.168C231.339 77.168 230.475 77.792 230.475 78.736ZM236.091 78.736C236.091 80.32 234.699 81.328 232.651 81.328C230.619 81.328 229.227 80.32 229.227 78.736C229.227 77.168 230.619 76.144 232.651 76.144C234.699 76.144 236.091 77.168 236.091 78.736ZM230.203 83.664V82.592H239.515V87.2H238.203V83.664H230.203ZM241.643 76.8V77.888H239.515V81.808H238.203V72.848H239.515V76.8H241.643ZM255.78 74.768V75.824H247.06V74.768H250.772V72.976H252.084V74.768H255.78ZM253.62 79.312C253.62 78.304 252.724 77.648 251.428 77.648C250.148 77.648 249.252 78.304 249.252 79.312C249.252 80.32 250.148 80.992 251.428 80.992C252.724 80.992 253.62 80.32 253.62 79.312ZM248.004 79.312C248.004 77.696 249.412 76.624 251.428 76.624C253.444 76.624 254.852 77.696 254.852 79.312C254.852 80.944 253.444 82 251.428 82C249.412 82 248.004 80.944 248.004 79.312ZM246.948 84.368L246.756 83.264C249.476 83.264 253.044 83.248 256.148 82.832L256.244 83.808C253.044 84.352 249.588 84.368 246.948 84.368ZM257.06 72.848H258.372V87.184H257.06V72.848ZM267.299 79.04V74.976H263.267V79.04H267.299ZM268.579 73.92V80.096H261.987V73.92H268.579ZM267.955 86.144C270.083 86.144 271.379 85.52 271.379 84.496C271.379 83.456 270.083 82.848 267.955 82.848C265.827 82.848 264.547 83.456 264.547 84.496C264.547 85.52 265.827 86.144 267.955 86.144ZM267.955 81.808C270.867 81.808 272.691 82.784 272.691 84.496C272.691 86.192 270.867 87.184 267.955 87.184C265.059 87.184 263.235 86.192 263.235 84.496C263.235 82.784 265.059 81.808 267.955 81.808ZM272.531 76.416H274.659V77.504H272.531V81.312H271.219V72.848H272.531V76.416ZM284.434 79.776L283.81 80.8C282.178 80.272 280.946 79.136 280.338 77.712C279.73 79.344 278.434 80.624 276.722 81.232L276.05 80.192C278.21 79.44 279.65 77.584 279.65 75.52V74.96H276.434V73.904H284.13V74.96H280.962V75.52C280.962 77.392 282.322 79.072 284.434 79.776ZM282.69 86.128C284.802 86.128 286.098 85.536 286.098 84.512C286.098 83.504 284.802 82.912 282.69 82.912C280.546 82.912 279.266 83.504 279.266 84.512C279.266 85.536 280.546 86.128 282.69 86.128ZM282.69 81.872C285.602 81.872 287.41 82.848 287.41 84.512C287.41 86.192 285.602 87.168 282.69 87.168C279.746 87.168 277.954 86.192 277.954 84.512C277.954 82.848 279.746 81.872 282.69 81.872ZM287.25 76.464H289.378V77.568H287.25V81.504H285.938V72.848H287.25V76.464ZM9.36 98.352V99.408H0.896V98.352H4.464V96.752H5.776V98.352H9.36ZM2.944 102.736C2.944 103.696 3.808 104.32 5.12 104.32C6.432 104.32 7.312 103.696 7.312 102.736C7.312 101.792 6.432 101.168 5.12 101.168C3.808 101.168 2.944 101.792 2.944 102.736ZM8.56 102.736C8.56 104.32 7.168 105.328 5.12 105.328C3.088 105.328 1.696 104.32 1.696 102.736C1.696 101.168 3.088 100.144 5.12 100.144C7.168 100.144 8.56 101.168 8.56 102.736ZM2.672 107.664V106.592H11.984V111.2H10.672V107.664H2.672ZM14.112 100.8V101.888H11.984V105.808H10.672V96.848H11.984V100.8H14.112ZM24.5908 101.76V105.232H23.3428V97.12H24.5908V100.688H26.4148V96.848H27.6788V105.696H26.4148V101.76H24.5908ZM22.7508 103.568L22.0468 104.576C20.7028 104.032 19.7268 103.008 19.2148 101.792C18.7028 103.136 17.6788 104.352 16.2868 104.976L15.5828 103.952C17.4548 103.12 18.5748 101.264 18.5748 99.664V97.728H19.8388V99.664C19.8388 101.248 20.9108 102.864 22.7508 103.568ZM22.9427 110.16C25.1188 110.16 26.4468 109.584 26.4468 108.592C26.4468 107.6 25.1188 107.04 22.9427 107.04C20.7988 107.04 19.4548 107.6 19.4548 108.592C19.4548 109.584 20.7988 110.16 22.9427 110.16ZM22.9427 106.016C25.9028 106.016 27.7428 106.96 27.7428 108.592C27.7428 110.224 25.9028 111.168 22.9427 111.168C19.9988 111.168 18.1588 110.224 18.1588 108.592C18.1588 106.96 19.9988 106.016 22.9427 106.016ZM41.7255 100.608V101.664H32.0135V97.312H41.5815V98.368H33.3255V100.608H41.7255ZM33.1655 108.512V109.984H42.0295V111.008H31.8855V107.536H40.3015V106.16H31.8375V105.136H41.5975V108.512H33.1655ZM30.2855 102.816H43.2775V103.888H30.2855V102.816ZM55.4363 96.832H56.7483V111.216H55.4363V96.832ZM49.1803 97.936C51.3083 97.936 52.8283 99.888 52.8283 102.944C52.8283 106 51.3083 107.952 49.1803 107.952C47.0523 107.952 45.5323 106 45.5323 102.944C45.5323 99.888 47.0523 97.936 49.1803 97.936ZM49.1803 99.12C47.7723 99.12 46.7803 100.624 46.7803 102.944C46.7803 105.28 47.7723 106.784 49.1803 106.784C50.5723 106.784 51.5643 105.28 51.5643 102.944C51.5643 100.624 50.5723 99.12 49.1803 99.12ZM63.9411 97.904H70.5651C70.5651 101.552 68.0211 104.224 63.8611 105.456L63.3331 104.4C66.7411 103.392 68.9011 101.44 69.1411 98.96H63.9411V97.904ZM69.9411 110.128C72.0051 110.128 73.3171 109.472 73.3171 108.384C73.3171 107.28 72.0051 106.624 69.9411 106.624C67.8771 106.624 66.5651 107.28 66.5651 108.384C66.5651 109.472 67.8771 110.128 69.9411 110.128ZM69.9411 105.6C72.7731 105.6 74.6131 106.64 74.6131 108.384C74.6131 110.112 72.7731 111.168 69.9411 111.168C67.1091 111.168 65.2691 110.112 65.2691 108.384C65.2691 106.64 67.1091 105.6 69.9411 105.6ZM74.4371 100.544H76.5651V101.632H74.4371V105.408H73.1251V96.832H74.4371V100.544ZM85.5399 105.312H88.4519V96.832H89.7639V107.76H88.4519V106.288H85.5399V105.312ZM82.6119 98.384C81.2519 98.384 80.3239 98.992 80.3239 99.904C80.3239 100.832 81.2519 101.44 82.6119 101.44C83.9719 101.44 84.8999 100.832 84.8999 99.904C84.8999 98.992 83.9719 98.384 82.6119 98.384ZM82.6119 102.416C80.5159 102.416 79.0759 101.44 79.0759 99.904C79.0759 98.4 80.5159 97.408 82.6119 97.408C84.7079 97.408 86.1479 98.4 86.1479 99.904C86.1479 101.44 84.7079 102.416 82.6119 102.416ZM82.0999 107.248V104.48C80.6759 104.544 79.2999 104.56 78.1159 104.56L77.9399 103.472C80.5959 103.472 84.1479 103.44 87.1879 103.056L87.2999 104C86.0359 104.192 84.7079 104.336 83.4119 104.416V107.248H82.0999ZM81.2999 109.792H90.1319V110.864H79.9879V106.688H81.2999V109.792ZM99.8906 108.288H105.763V109.376H92.7226V108.288H98.5626V104.608H94.3866V97.984H104.115V99.056H95.6986V103.552H104.259V104.608H99.8906V108.288ZM121.532 105.68V103.04H119.164V101.968H121.532V100.464H119.164V99.392H121.532V96.848H122.86V105.68H121.532ZM114.156 98.976V103.712C114.86 103.696 115.596 103.664 116.316 103.632V98.976H114.156ZM119.468 103.376L119.548 104.352C116.78 104.784 113.548 104.832 111.228 104.832L111.084 103.744C111.628 103.744 112.252 103.744 112.892 103.728V98.976H111.468V97.92H119.02V98.976H117.596V103.552C118.236 103.504 118.876 103.456 119.468 103.376ZM118.124 110.144C120.3 110.144 121.596 109.568 121.596 108.56C121.596 107.584 120.3 106.992 118.124 106.992C115.948 106.992 114.652 107.584 114.652 108.56C114.652 109.568 115.948 110.144 118.124 110.144ZM118.124 105.984C121.084 105.984 122.908 106.912 122.908 108.56C122.908 110.224 121.084 111.168 118.124 111.168C115.148 111.168 113.34 110.224 113.34 108.56C113.34 106.912 115.148 105.984 118.124 105.984ZM134.154 103.872L133.546 104.896C131.914 104.384 130.65 103.344 130.01 101.984C129.402 103.504 128.106 104.688 126.426 105.264L125.77 104.224C127.898 103.568 129.338 101.84 129.338 99.92V99.632H126.154V98.576H129.338V96.752H130.65V98.576H133.818V99.632H130.65V99.92C130.65 101.664 132.042 103.248 134.154 103.872ZM132.33 110.144C134.442 110.144 135.738 109.568 135.738 108.576C135.738 107.584 134.442 107.008 132.33 107.008C130.186 107.008 128.906 107.584 128.906 108.576C128.906 109.568 130.186 110.144 132.33 110.144ZM132.33 105.984C135.258 105.984 137.05 106.912 137.05 108.576C137.05 110.224 135.258 111.152 132.33 111.152C129.37 111.152 127.594 110.224 127.594 108.576C127.594 106.912 129.37 105.984 132.33 105.984ZM136.89 100.544H139.018V101.632H136.89V105.632H135.578V96.832H136.89V100.544ZM143.721 106.816C144.841 106.816 145.577 105.36 145.577 103.008C145.577 100.704 144.841 99.248 143.721 99.248C142.569 99.248 141.849 100.704 141.849 103.008C141.849 105.36 142.569 106.816 143.721 106.816ZM148.569 102.416V97.152H149.817V110.48H148.569V103.488H146.761C146.649 106.304 145.481 108.032 143.721 108.032C141.849 108.032 140.649 106.112 140.649 103.008C140.649 99.952 141.849 98.032 143.721 98.032C145.449 98.032 146.601 99.712 146.761 102.416H148.569ZM151.417 96.832H152.665V111.184H151.417V96.832ZM161.57 99.072V103.728H168.914V99.072H161.57ZM165.922 108.256H171.778V109.344H158.77V108.256H164.594V104.768H160.306V98.032H170.194V104.768H165.922V108.256ZM177.393 98.72C176.001 98.72 174.977 99.664 174.977 100.992C174.977 102.32 176.001 103.28 177.393 103.28C178.801 103.28 179.825 102.32 179.825 100.992C179.825 99.664 178.801 98.72 177.393 98.72ZM183.985 99.904H180.897C181.009 100.24 181.073 100.608 181.073 100.992C181.073 101.376 181.009 101.728 180.913 102.048H183.985V99.904ZM183.985 103.12H180.337C179.665 103.904 178.625 104.384 177.393 104.384C175.281 104.384 173.729 102.976 173.729 100.992C173.729 99.008 175.281 97.616 177.393 97.616C178.609 97.616 179.633 98.08 180.289 98.832H183.985V96.848H185.313V105.008H183.985V103.12ZM183.745 105.472V106.416C183.745 107.92 184.801 109.424 186.641 110.048L185.985 111.024C184.593 110.496 183.569 109.52 183.089 108.304C182.641 109.472 181.777 110.576 180.449 111.136C179.073 110.608 178.209 109.536 177.777 108.352C177.265 109.504 176.289 110.496 174.945 111.024L174.289 110.048C176.097 109.376 177.169 107.824 177.169 106.416V105.472H178.433V106.416C178.433 107.712 179.089 109.088 180.433 109.872C181.793 109.008 182.465 107.552 182.465 106.416V105.472H183.745ZM190.127 99.296V106.512C192.671 106.512 194.511 106.4 196.591 106.032L196.735 107.12C194.543 107.536 192.655 107.632 189.951 107.632H188.815V98.208H195.487V99.296H190.127ZM201.615 102.496V103.584H199.247V111.216H197.935V96.832H199.247V102.496H201.615ZM204.302 110.208C203.726 110.208 203.246 109.76 203.246 109.104C203.246 108.432 203.726 107.968 204.302 107.968C204.878 107.968 205.358 108.432 205.358 109.104C205.358 109.76 204.878 110.208 204.302 110.208ZM219.469 98.352V99.408H211.005V98.352H214.573V96.704H215.885V98.352H219.469ZM213.053 102.688C213.053 103.632 213.917 104.256 215.229 104.256C216.541 104.256 217.421 103.632 217.421 102.688C217.421 101.744 216.541 101.12 215.229 101.12C213.917 101.12 213.053 101.744 213.053 102.688ZM218.669 102.688C218.669 104.24 217.277 105.232 215.229 105.232C213.181 105.232 211.805 104.24 211.805 102.688C211.805 101.12 213.181 100.128 215.229 100.128C217.277 100.128 218.669 101.12 218.669 102.688ZM214.365 107.328V109.936H220.797V107.328H214.365ZM213.085 110.992V106.288H222.093V110.992H213.085ZM224.221 100.656V101.744H222.093V105.472H220.781V96.848H222.093V100.656H224.221ZM226.012 98.544H229.196C229.196 101.616 228.796 104.992 226.732 107.776L225.708 107.2C227.484 104.912 227.98 102.288 228.076 99.616H226.012V98.544ZM234.012 102.464V97.2H235.244V110.448H234.012V103.536H232.012C231.676 105.328 231.068 107.136 229.916 108.704L228.892 108.112C230.844 105.552 231.18 102.32 231.228 99.616H229.676V98.544H232.364C232.364 99.728 232.332 101.072 232.172 102.464H234.012ZM236.668 96.832H237.916V111.168H236.668V96.832ZM250.453 98.048C248.165 98.048 246.757 98.656 246.757 99.664C246.757 100.688 248.165 101.28 250.453 101.28C252.741 101.28 254.149 100.688 254.149 99.664C254.149 98.656 252.741 98.048 250.453 98.048ZM250.453 102.304C247.333 102.304 245.413 101.344 245.413 99.664C245.413 98 247.333 97.04 250.453 97.04C253.573 97.04 255.493 98 255.493 99.664C255.493 101.344 253.573 102.304 250.453 102.304ZM251.125 106.704V107.152C251.125 108.72 253.333 109.872 255.957 110.128L255.525 111.136C253.285 110.864 251.285 110.016 250.453 108.656C249.573 110 247.589 110.88 245.349 111.136L244.917 110.128C247.509 109.856 249.765 108.688 249.765 107.152V106.704H251.125ZM243.973 103.392H256.981V104.464H251.093V106.048H249.797V104.464H243.973V103.392ZM268.82 99.696V99.344H260.068V98.272H270.132V99.696C270.132 101.472 270.132 103.44 269.588 106.336L268.276 106.192C268.82 103.44 268.82 101.424 268.82 99.696ZM265.06 108.096H271.684V109.168H258.708V108.096H263.748V102.96H265.06V108.096ZM273.763 113.04L273.411 112.176C274.419 111.728 275.011 110.944 275.011 110C274.947 110.016 274.899 110.016 274.835 110.016C274.275 110.016 273.763 109.664 273.763 108.992C273.763 108.368 274.275 107.968 274.867 107.968C275.635 107.968 276.099 108.624 276.099 109.696C276.099 111.232 275.203 112.432 273.763 113.04ZM282.882 107.712V106.656H292.818V111.2H291.506V107.712H282.882ZM284.386 98.464V101.248H291.458V98.464H284.386ZM288.594 104.112H294.418V105.168H281.426V104.112H287.282V102.288H283.106V97.424H292.754V102.288H288.594V104.112ZM8.48 124.912H11.344V120.832H12.672V129.536H11.344V126H8.48V124.912ZM9.344 127.904L8.72 128.928C7.072 128.416 5.776 127.344 5.12 125.952C4.512 127.52 3.216 128.736 1.52 129.296L0.88 128.288C2.992 127.568 4.432 125.824 4.432 123.888V123.616H1.248V122.56H4.432V120.752H5.744V122.56H8.912V123.616H5.744V123.888C5.744 125.68 7.232 127.28 9.344 127.904ZM7.92 134.144C10.096 134.144 11.408 133.536 11.408 132.528C11.408 131.536 10.112 130.928 7.92 130.928C5.76 130.928 4.464 131.536 4.464 132.528C4.464 133.536 5.76 134.144 7.92 134.144ZM7.92 129.904C10.896 129.904 12.72 130.864 12.72 132.528C12.72 134.208 10.896 135.168 7.92 135.168C4.976 135.168 3.152 134.208 3.152 132.528C3.152 130.864 4.976 129.904 7.92 129.904ZM20.6548 129.296L19.7108 128.512C21.5988 126.992 22.3828 125.232 22.5428 123.008H20.3508V121.952H23.7908C23.7908 123.008 23.6948 124 23.4548 124.944H26.0148V120.848H27.3268V130.656H26.0148V126.016H23.1028C22.6068 127.216 21.8228 128.304 20.6548 129.296ZM16.0468 121.952H19.8068C19.8068 124.8 18.9108 126.832 16.4948 128.544L15.6468 127.712C17.5028 126.464 18.3668 125.088 18.5588 123.008H16.0468V121.952ZM23.3428 129.424V129.984C23.3428 132.032 25.5508 133.616 28.1108 134.064L27.5668 135.104C25.4548 134.688 23.5347 133.584 22.6868 131.92C21.8388 133.584 19.9028 134.72 17.7588 135.136L17.2308 134.096C19.7908 133.648 22.0308 132.064 22.0308 129.984V129.424H23.3428ZM33.8636 127.808H46.8236V128.864H33.8636V127.808ZM40.3436 130.064C43.4156 130.064 45.2556 130.976 45.2556 132.624C45.2556 134.256 43.4156 135.184 40.3436 135.184C37.2876 135.184 35.4316 134.256 35.4316 132.624C35.4316 130.976 37.2876 130.064 40.3436 130.064ZM40.3436 131.072C38.0876 131.072 36.7596 131.648 36.7596 132.624C36.7596 133.6 38.0876 134.16 40.3436 134.16C42.5996 134.16 43.9276 133.6 43.9276 132.624C43.9276 131.648 42.5996 131.072 40.3436 131.072ZM40.3436 121.2C43.4476 121.2 45.3836 122.208 45.3836 123.936C45.3836 125.648 43.4476 126.656 40.3436 126.656C37.2556 126.656 35.3036 125.648 35.3036 123.936C35.3036 122.208 37.2556 121.2 40.3436 121.2ZM40.3436 122.224C38.0716 122.224 36.6476 122.864 36.6476 123.936C36.6476 124.992 38.0716 125.632 40.3436 125.632C42.6156 125.632 44.0396 124.992 44.0396 123.936C44.0396 122.864 42.6156 122.224 40.3436 122.224ZM56.1024 129.312H59.0144V120.832H60.3264V131.76H59.0144V130.288H56.1024V129.312ZM53.1744 122.384C51.8144 122.384 50.8864 122.992 50.8864 123.904C50.8864 124.832 51.8144 125.44 53.1744 125.44C54.5344 125.44 55.4624 124.832 55.4624 123.904C55.4624 122.992 54.5344 122.384 53.1744 122.384ZM53.1744 126.416C51.0784 126.416 49.6384 125.44 49.6384 123.904C49.6384 122.4 51.0784 121.408 53.1744 121.408C55.2704 121.408 56.7104 122.4 56.7104 123.904C56.7104 125.44 55.2704 126.416 53.1744 126.416ZM52.6624 131.248V128.48C51.2384 128.544 49.8624 128.56 48.6784 128.56L48.5024 127.472C51.1584 127.472 54.7104 127.44 57.7504 127.056L57.8624 128C56.5984 128.192 55.2704 128.336 53.9744 128.416V131.248H52.6624ZM51.8624 133.792H60.6944V134.864H50.5504V130.688H51.8624V133.792ZM67.5091 130.896C68.8211 130.896 69.7651 129.968 69.7651 128.688C69.7651 127.392 68.8211 126.464 67.5091 126.464C66.2131 126.464 65.2691 127.392 65.2691 128.688C65.2691 129.968 66.2131 130.896 67.5091 130.896ZM67.5091 125.376C69.5571 125.376 71.0131 126.752 71.0131 128.688C71.0131 130.64 69.5571 131.984 67.5091 131.984C65.4931 131.984 64.0371 130.64 64.0371 128.688C64.0371 126.752 65.4931 125.376 67.5091 125.376ZM68.1491 121.008V123.136H71.6851V124.192H63.2211V123.136H66.8371V121.008H68.1491ZM76.7091 126.736V127.84H74.3571V135.184H73.0451V120.848H74.3571V126.736H76.7091ZM85.1239 128.224H88.5319V125.344H85.1239V128.224ZM83.8279 130.512V123.28H79.8759V130.512H83.8279ZM88.5319 120.832H89.8439V135.216H88.5319V129.296H85.1239V131.552H78.5959V122.24H85.1239V124.272H88.5319V120.832ZM96.9466 130.896C98.2586 130.896 99.2026 129.968 99.2026 128.688C99.2026 127.392 98.2586 126.464 96.9466 126.464C95.6506 126.464 94.7066 127.392 94.7066 128.688C94.7066 129.968 95.6506 130.896 96.9466 130.896ZM96.9466 125.376C98.9946 125.376 100.451 126.752 100.451 128.688C100.451 130.64 98.9946 131.984 96.9466 131.984C94.9306 131.984 93.4746 130.64 93.4746 128.688C93.4746 126.752 94.9306 125.376 96.9466 125.376ZM97.5866 121.008V123.136H101.123V124.192H92.6586V123.136H96.2746V121.008H97.5866ZM106.147 126.736V127.84H103.795V135.184H102.483V120.848H103.795V126.736H106.147ZM109.009 125.376C109.009 126.768 110.065 127.776 111.473 127.776C112.881 127.776 113.937 126.768 113.937 125.376C113.937 123.968 112.881 122.976 111.473 122.976C110.065 122.976 109.009 123.968 109.009 125.376ZM115.217 125.376C115.217 127.456 113.617 128.912 111.473 128.912C109.329 128.912 107.729 127.456 107.729 125.376C107.729 123.296 109.329 121.84 111.473 121.84C113.617 121.84 115.217 123.296 115.217 125.376ZM110.977 130.32V133.792H119.233V134.864H109.665V130.32H110.977ZM120.689 124.512H118.593V126.944H120.689V128.032H118.593V131.392H117.281V120.832H118.593V123.44H120.689V124.512ZM127.962 127.216V130.656C130.57 130.656 132.426 130.56 134.57 130.176L134.698 131.248C132.458 131.632 130.538 131.728 127.802 131.728H126.666V122.128H133.626V123.2H127.962V126.16H133.098V127.216H127.962ZM136.218 120.832H137.53V135.168H136.218V120.832ZM145.497 122.08V124.64C145.497 127.28 147.129 129.904 149.209 130.896L148.425 131.952C146.809 131.12 145.481 129.392 144.841 127.36C144.217 129.488 142.889 131.28 141.273 132.16L140.473 131.12C142.553 130.064 144.185 127.312 144.185 124.64V122.08H145.497ZM150.969 120.832H152.297V135.216H150.969V128.624H147.865V127.536H150.969V125.04H147.865V123.952H150.969V120.832ZM156.488 129.872L155.976 128.8C158.728 128.32 161.032 126.544 161.032 124.192H156.408V123.136H161.032V121.184H162.36V123.136H166.968V124.192H162.36C162.36 126.544 164.664 128.32 167.416 128.8L166.888 129.872C164.616 129.408 162.584 128.192 161.704 126.352C160.808 128.192 158.776 129.408 156.488 129.872ZM155.192 132.272H168.216V133.344H155.192V132.272ZM178.193 122.592C176.785 122.592 175.793 123.344 175.793 124.464C175.793 125.584 176.785 126.336 178.193 126.336C179.585 126.336 180.577 125.584 180.577 124.464C180.577 123.344 179.585 122.592 178.193 122.592ZM178.193 127.408C176.049 127.408 174.529 126.208 174.529 124.464C174.529 122.704 176.049 121.504 178.193 121.504C180.321 121.504 181.841 122.704 181.841 124.464C181.841 126.208 180.321 127.408 178.193 127.408ZM182.913 128.112L183.025 129.088C181.665 129.328 180.273 129.488 178.913 129.568V134.736H177.601V129.648C176.177 129.712 174.817 129.728 173.633 129.728L173.457 128.624C176.129 128.624 179.761 128.592 182.913 128.112ZM183.953 120.848H185.265V135.2H183.953V120.848ZM191.455 130.816C192.575 130.816 193.311 129.36 193.311 127.008C193.311 124.704 192.575 123.248 191.455 123.248C190.303 123.248 189.583 124.704 189.583 127.008C189.583 129.36 190.303 130.816 191.455 130.816ZM196.303 126.416V121.152H197.551V134.48H196.303V127.488H194.495C194.383 130.304 193.215 132.032 191.455 132.032C189.583 132.032 188.383 130.112 188.383 127.008C188.383 123.952 189.583 122.032 191.455 122.032C193.183 122.032 194.335 123.712 194.495 126.416H196.303ZM199.151 120.832H200.399V135.184H199.151V120.832ZM211.464 123.376V125.04C211.464 127.424 213.144 130.032 215.224 131.024L214.44 132.048C212.84 131.232 211.464 129.52 210.808 127.536C210.184 129.648 208.792 131.488 207.16 132.352L206.392 131.312C208.44 130.304 210.152 127.584 210.152 125.04V123.376H206.904V122.304H214.728V123.376H211.464ZM217.016 120.832H218.328V135.2H217.016V127.12H213.912V126.048H217.016V120.832ZM223.079 123.328V130.48H227.095V123.328H223.079ZM221.799 131.536V122.272H228.375V131.536H221.799ZM234.631 126.56V127.664H232.263V135.184H230.951V120.848H232.263V126.56H234.631ZM237.862 123.296V130.512C240.406 130.512 242.246 130.4 244.326 130.032L244.47 131.12C242.278 131.536 240.39 131.632 237.686 131.632H236.55V122.208H243.222V123.296H237.862ZM249.35 126.496V127.584H246.982V135.216H245.67V120.832H246.982V126.496H249.35ZM255.317 121.888C257.557 121.888 259.157 123.248 259.157 125.264C259.157 127.264 257.557 128.64 255.317 128.64C253.093 128.64 251.477 127.264 251.477 125.264C251.477 123.248 253.093 121.888 255.317 121.888ZM255.317 123.008C253.845 123.008 252.757 123.92 252.757 125.264C252.757 126.592 253.845 127.52 255.317 127.52C256.805 127.52 257.877 126.592 257.877 125.264C257.877 123.92 256.805 123.008 255.317 123.008ZM261.045 120.832H262.357V135.216H261.045V120.832ZM250.917 132.064L250.757 130.96C253.365 130.96 256.965 130.944 260.101 130.464L260.213 131.44C256.981 132.032 253.509 132.064 250.917 132.064ZM279.021 133.92V130.992H271.869V133.92H279.021ZM281.981 127.52H276.093V129.936H280.301V134.976H270.573V129.936H274.781V127.52H268.941V126.464H272.957C273.421 124.736 273.517 123.456 273.549 122.576H270.205V121.52H274.813V121.936C274.813 122.72 274.813 124.304 274.285 126.464H278.669C279.053 124.72 279.117 123.456 279.133 122.576H275.885V121.52H280.413V122.08C280.413 122.944 280.413 124.416 279.965 126.464H281.981V127.52ZM290.156 122.064C287.804 122.064 286.46 122.608 286.46 123.568C286.46 124.528 287.804 125.072 290.156 125.072C292.508 125.072 293.852 124.528 293.852 123.568C293.852 122.608 292.508 122.064 290.156 122.064ZM290.156 126.048C287.004 126.048 285.116 125.184 285.116 123.568C285.116 121.952 287.004 121.072 290.156 121.072C293.308 121.072 295.196 121.952 295.196 123.568C295.196 125.184 293.308 126.048 290.156 126.048ZM286.556 132.544V134H295.42V135.024H285.276V131.584H293.692V130.304H285.228V129.312H294.988V132.544H286.556ZM283.66 127.024H296.652V128.08H283.66V127.024ZM13.872 151.696H7.984V154.256H12.16V159.152H10.848V155.312H2.32V154.256H6.672V151.696H0.848V150.624H4.816C5.28 148.8 5.392 147.456 5.424 146.544H2.112V145.488H6.704V145.904C6.704 146.704 6.704 148.352 6.112 150.624H10.512C10.944 148.784 11.008 147.456 11.024 146.544H7.776V145.488H12.304V146.048C12.304 146.928 12.304 148.48 11.808 150.624H13.872V151.696ZM28.5908 151.696H22.7028V154.256H26.8788V159.152H25.5668V155.312H17.0388V154.256H21.3908V151.696H15.5668V150.624H19.5348C19.9988 148.8 20.1108 147.456 20.1428 146.544H16.8307V145.488H21.4228V145.904C21.4228 146.704 21.4228 148.352 20.8308 150.624H25.2308C25.6628 148.784 25.7268 147.456 25.7428 146.544H22.4948V145.488H27.0228V146.048C27.0228 146.928 27.0228 148.48 26.5268 150.624H28.5908V151.696ZM45.3516 148.256V149.312H35.6076V145.04H36.9036V148.256H45.3516ZM46.8716 151.632H40.9996V153.136H45.2236V156.448H36.8076V158H45.7036V159.024H35.4956V155.488H43.9116V154.144H35.4636V153.136H39.6876V151.632H33.8636V150.56H46.8716V151.632ZM50.4064 151.184V154.656C52.8544 154.656 54.5984 154.56 56.6624 154.192L56.7904 155.28C54.6304 155.664 52.8064 155.744 50.2144 155.744H49.1104V150.128H54.2144V147.232H49.0784V146.16H55.4944V151.184H50.4064ZM59.0784 144.816H60.3904V159.2H59.0784V151.424H56.3424V150.352H59.0784V144.816ZM75.1833 150.592L75.3273 151.648C73.3593 152.048 71.6633 152.16 68.6553 152.16H67.5353V145.792H73.8553V146.848H68.8473V151.072C71.6793 151.072 73.3113 150.96 75.1833 150.592ZM70.2873 154.768V157.92H76.7193V154.768H70.2873ZM69.0073 158.976V153.728H78.0153V158.976H69.0073ZM80.1433 148.336V149.424H78.0153V152.96H76.7033V144.816H78.0153V148.336H80.1433ZM88.078 146.384C85.822 146.384 84.382 147.056 84.382 148.192C84.382 149.328 85.822 149.984 88.078 149.984C90.334 149.984 91.774 149.328 91.774 148.192C91.774 147.056 90.334 146.384 88.078 146.384ZM88.078 151.04C85.006 151.04 83.038 149.984 83.038 148.192C83.038 146.4 85.006 145.328 88.078 145.328C91.15 145.328 93.118 146.4 93.118 148.192C93.118 149.984 91.15 151.04 88.078 151.04ZM84.574 154.704V157.792H93.134V158.864H83.262V154.704H84.574ZM81.582 152.384H94.558V153.44H81.582V152.384ZM101.703 147.648V154.56C103.623 154.544 104.983 154.464 106.551 154.128L106.663 155.216C104.951 155.584 103.495 155.648 101.351 155.648H100.407V146.576H105.751V147.648H101.703ZM110.823 144.832H112.087V159.184H110.823V151.664H108.791V158.464H107.559V145.152H108.791V150.592H110.823V144.832ZM123.126 146.352V147.408H114.662V146.352H118.23V144.752H119.542V146.352H123.126ZM116.71 150.736C116.71 151.696 117.574 152.32 118.886 152.32C120.198 152.32 121.078 151.696 121.078 150.736C121.078 149.792 120.198 149.168 118.886 149.168C117.574 149.168 116.71 149.792 116.71 150.736ZM122.326 150.736C122.326 152.32 120.934 153.328 118.886 153.328C116.854 153.328 115.462 152.32 115.462 150.736C115.462 149.168 116.854 148.144 118.886 148.144C120.934 148.144 122.326 149.168 122.326 150.736ZM116.438 155.664V154.592H125.75V159.2H124.438V155.664H116.438ZM127.878 148.8V149.888H125.75V153.808H124.438V144.848H125.75V148.8H127.878ZM142.015 146.768V147.824H133.295V146.768H137.007V144.976H138.319V146.768H142.015ZM139.855 151.312C139.855 150.304 138.959 149.648 137.663 149.648C136.383 149.648 135.487 150.304 135.487 151.312C135.487 152.32 136.383 152.992 137.663 152.992C138.959 152.992 139.855 152.32 139.855 151.312ZM134.239 151.312C134.239 149.696 135.647 148.624 137.663 148.624C139.679 148.624 141.087 149.696 141.087 151.312C141.087 152.944 139.679 154 137.663 154C135.647 154 134.239 152.944 134.239 151.312ZM133.183 156.368L132.991 155.264C135.711 155.264 139.279 155.248 142.383 154.832L142.479 155.808C139.279 156.352 135.823 156.368 133.183 156.368ZM143.295 144.848H144.607V159.184H143.295V144.848ZM153.533 151.04V146.976H149.501V151.04H153.533ZM154.813 145.92V152.096H148.221V145.92H154.813ZM154.189 158.144C156.317 158.144 157.613 157.52 157.613 156.496C157.613 155.456 156.317 154.848 154.189 154.848C152.061 154.848 150.781 155.456 150.781 156.496C150.781 157.52 152.061 158.144 154.189 158.144ZM154.189 153.808C157.101 153.808 158.925 154.784 158.925 156.496C158.925 158.192 157.101 159.184 154.189 159.184C151.293 159.184 149.469 158.192 149.469 156.496C149.469 154.784 151.293 153.808 154.189 153.808ZM158.765 148.416H160.893V149.504H158.765V153.312H157.453V144.848H158.765V148.416ZM170.668 151.776L170.044 152.8C168.412 152.272 167.18 151.136 166.572 149.712C165.964 151.344 164.668 152.624 162.956 153.232L162.284 152.192C164.444 151.44 165.884 149.584 165.884 147.52V146.96H162.668V145.904H170.364V146.96H167.196V147.52C167.196 149.392 168.556 151.072 170.668 151.776ZM168.924 158.128C171.036 158.128 172.332 157.536 172.332 156.512C172.332 155.504 171.036 154.912 168.924 154.912C166.78 154.912 165.5 155.504 165.5 156.512C165.5 157.536 166.78 158.128 168.924 158.128ZM168.924 153.872C171.836 153.872 173.644 154.848 173.644 156.512C173.644 158.192 171.836 159.168 168.924 159.168C165.98 159.168 164.188 158.192 164.188 156.512C164.188 154.848 165.98 153.872 168.924 153.872ZM173.484 148.464H175.612V149.568H173.484V153.504H172.172V144.848H173.484V148.464ZM185.579 146.352V147.408H177.115V146.352H180.683V144.752H181.995V146.352H185.579ZM179.163 150.736C179.163 151.696 180.027 152.32 181.339 152.32C182.651 152.32 183.531 151.696 183.531 150.736C183.531 149.792 182.651 149.168 181.339 149.168C180.027 149.168 179.163 149.792 179.163 150.736ZM184.779 150.736C184.779 152.32 183.387 153.328 181.339 153.328C179.307 153.328 177.915 152.32 177.915 150.736C177.915 149.168 179.307 148.144 181.339 148.144C183.387 148.144 184.779 149.168 184.779 150.736ZM178.891 155.664V154.592H188.203V159.2H186.891V155.664H178.891ZM190.331 148.8V149.888H188.203V153.808H186.891V144.848H188.203V148.8H190.331ZM200.81 149.76V153.232H199.562V145.12H200.81V148.688H202.634V144.848H203.898V153.696H202.634V149.76H200.81ZM198.97 151.568L198.266 152.576C196.922 152.032 195.946 151.008 195.434 149.792C194.922 151.136 193.898 152.352 192.506 152.976L191.802 151.952C193.674 151.12 194.794 149.264 194.794 147.664V145.728H196.058V147.664C196.058 149.248 197.13 150.864 198.97 151.568ZM199.161 158.16C201.338 158.16 202.666 157.584 202.666 156.592C202.666 155.6 201.338 155.04 199.161 155.04C197.018 155.04 195.674 155.6 195.674 156.592C195.674 157.584 197.018 158.16 199.161 158.16ZM199.161 154.016C202.122 154.016 203.962 154.96 203.962 156.592C203.962 158.224 202.122 159.168 199.161 159.168C196.218 159.168 194.378 158.224 194.378 156.592C194.378 154.96 196.218 154.016 199.161 154.016ZM217.944 148.608V149.664H208.232V145.312H217.8V146.368H209.544V148.608H217.944ZM209.384 156.512V157.984H218.248V159.008H208.104V155.536H216.52V154.16H208.056V153.136H217.816V156.512H209.384ZM206.504 150.816H219.496V151.888H206.504V150.816ZM231.655 144.832H232.967V159.216H231.655V144.832ZM225.399 145.936C227.527 145.936 229.047 147.888 229.047 150.944C229.047 154 227.527 155.952 225.399 155.952C223.271 155.952 221.751 154 221.751 150.944C221.751 147.888 223.271 145.936 225.399 145.936ZM225.399 147.12C223.991 147.12 222.999 148.624 222.999 150.944C222.999 153.28 223.991 154.784 225.399 154.784C226.791 154.784 227.783 153.28 227.783 150.944C227.783 148.624 226.791 147.12 225.399 147.12ZM240.16 145.904H246.784C246.784 149.552 244.24 152.224 240.08 153.456L239.552 152.4C242.96 151.392 245.12 149.44 245.36 146.96H240.16V145.904ZM246.16 158.128C248.224 158.128 249.536 157.472 249.536 156.384C249.536 155.28 248.224 154.624 246.16 154.624C244.096 154.624 242.784 155.28 242.784 156.384C242.784 157.472 244.096 158.128 246.16 158.128ZM246.16 153.6C248.992 153.6 250.832 154.64 250.832 156.384C250.832 158.112 248.992 159.168 246.16 159.168C243.328 159.168 241.488 158.112 241.488 156.384C241.488 154.64 243.328 153.6 246.16 153.6ZM250.656 148.544H252.784V149.632H250.656V153.408H249.344V144.832H250.656V148.544ZM261.759 153.312H264.671V144.832H265.983V155.76H264.671V154.288H261.759V153.312ZM258.831 146.384C257.471 146.384 256.543 146.992 256.543 147.904C256.543 148.832 257.471 149.44 258.831 149.44C260.191 149.44 261.119 148.832 261.119 147.904C261.119 146.992 260.191 146.384 258.831 146.384ZM258.831 150.416C256.735 150.416 255.295 149.44 255.295 147.904C255.295 146.4 256.735 145.408 258.831 145.408C260.927 145.408 262.367 146.4 262.367 147.904C262.367 149.44 260.927 150.416 258.831 150.416ZM258.319 155.248V152.48C256.895 152.544 255.519 152.56 254.335 152.56L254.159 151.472C256.815 151.472 260.367 151.44 263.407 151.056L263.519 152C262.255 152.192 260.927 152.336 259.631 152.416V155.248H258.319ZM257.519 157.792H266.351V158.864H256.207V154.688H257.519V157.792ZM276.109 156.288H281.981V157.376H268.941V156.288H274.781V152.608H270.605V145.984H280.333V147.056H271.917V151.552H280.477V152.608H276.109V156.288ZM11.344 177.68V175.04H8.976V173.968H11.344V172.464H8.976V171.392H11.344V168.848H12.672V177.68H11.344ZM3.968 170.976V175.712C4.672 175.696 5.408 175.664 6.128 175.632V170.976H3.968ZM9.28 175.376L9.36 176.352C6.592 176.784 3.36 176.832 1.04 176.832L0.896 175.744C1.44 175.744 2.064 175.744 2.704 175.728V170.976H1.28V169.92H8.832V170.976H7.408V175.552C8.048 175.504 8.688 175.456 9.28 175.376ZM7.936 182.144C10.112 182.144 11.408 181.568 11.408 180.56C11.408 179.584 10.112 178.992 7.936 178.992C5.76 178.992 4.464 179.584 4.464 180.56C4.464 181.568 5.76 182.144 7.936 182.144ZM7.936 177.984C10.896 177.984 12.72 178.912 12.72 180.56C12.72 182.224 10.896 183.168 7.936 183.168C4.96 183.168 3.152 182.224 3.152 180.56C3.152 178.912 4.96 177.984 7.936 177.984ZM23.9668 175.872L23.3588 176.896C21.7268 176.384 20.4628 175.344 19.8228 173.984C19.2148 175.504 17.9188 176.688 16.2388 177.264L15.5828 176.224C17.7108 175.568 19.1508 173.84 19.1508 171.92V171.632H15.9668V170.576H19.1508V168.752H20.4628V170.576H23.6308V171.632H20.4628V171.92C20.4628 173.664 21.8548 175.248 23.9668 175.872ZM22.1428 182.144C24.2548 182.144 25.5508 181.568 25.5508 180.576C25.5508 179.584 24.2548 179.008 22.1428 179.008C19.9988 179.008 18.7188 179.584 18.7188 180.576C18.7188 181.568 19.9988 182.144 22.1428 182.144ZM22.1428 177.984C25.0708 177.984 26.8628 178.912 26.8628 180.576C26.8628 182.224 25.0708 183.152 22.1428 183.152C19.1828 183.152 17.4068 182.224 17.4068 180.576C17.4068 178.912 19.1828 177.984 22.1428 177.984ZM26.7028 172.544H28.8308V173.632H26.7028V177.632H25.3908V168.832H26.7028V172.544ZM33.5335 178.816C34.6535 178.816 35.3895 177.36 35.3895 175.008C35.3895 172.704 34.6535 171.248 33.5335 171.248C32.3815 171.248 31.6615 172.704 31.6615 175.008C31.6615 177.36 32.3815 178.816 33.5335 178.816ZM38.3815 174.416V169.152H39.6295V182.48H38.3815V175.488H36.5735C36.4615 178.304 35.2935 180.032 33.5335 180.032C31.6615 180.032 30.4615 178.112 30.4615 175.008C30.4615 171.952 31.6615 170.032 33.5335 170.032C35.2615 170.032 36.4135 171.712 36.5735 174.416H38.3815ZM41.2295 168.832H42.4775V183.184H41.2295V168.832ZM51.3824 171.072V175.728H58.7264V171.072H51.3824ZM55.7344 180.256H61.5904V181.344H48.5824V180.256H54.4064V176.768H50.1184V170.032H60.0064V176.768H55.7344V180.256ZM67.2051 170.72C65.8131 170.72 64.7891 171.664 64.7891 172.992C64.7891 174.32 65.8131 175.28 67.2051 175.28C68.6131 175.28 69.6371 174.32 69.6371 172.992C69.6371 171.664 68.6131 170.72 67.2051 170.72ZM73.7971 171.904H70.7091C70.8211 172.24 70.8851 172.608 70.8851 172.992C70.8851 173.376 70.8211 173.728 70.7251 174.048H73.7971V171.904ZM73.7971 175.12H70.1491C69.4771 175.904 68.4371 176.384 67.2051 176.384C65.0931 176.384 63.5411 174.976 63.5411 172.992C63.5411 171.008 65.0931 169.616 67.2051 169.616C68.4211 169.616 69.4451 170.08 70.1011 170.832H73.7971V168.848H75.1251V177.008H73.7971V175.12ZM73.5571 177.472V178.416C73.5571 179.92 74.6131 181.424 76.4531 182.048L75.7971 183.024C74.4051 182.496 73.3811 181.52 72.9011 180.304C72.4531 181.472 71.5891 182.576 70.2611 183.136C68.8851 182.608 68.0211 181.536 67.5891 180.352C67.0771 181.504 66.1011 182.496 64.7571 183.024L64.1011 182.048C65.9091 181.376 66.9811 179.824 66.9811 178.416V177.472H68.2451V178.416C68.2451 179.712 68.9011 181.088 70.2451 181.872C71.6051 181.008 72.2771 179.552 72.2771 178.416V177.472H73.5571ZM79.9399 171.296V178.512C82.4839 178.512 84.3239 178.4 86.4039 178.032L86.5479 179.12C84.3559 179.536 82.4679 179.632 79.7639 179.632H78.6279V170.208H85.2999V171.296H79.9399ZM91.4279 174.496V175.584H89.0599V183.216H87.7479V168.832H89.0599V174.496H91.4279ZM94.1146 182.208C93.5386 182.208 93.0586 181.76 93.0586 181.104C93.0586 180.432 93.5386 179.968 94.1146 179.968C94.6906 179.968 95.1706 180.432 95.1706 181.104C95.1706 181.76 94.6906 182.208 94.1146 182.208ZM109.282 170.352V171.408H100.818V170.352H104.386V168.704H105.698V170.352H109.282ZM102.866 174.688C102.866 175.632 103.73 176.256 105.042 176.256C106.354 176.256 107.234 175.632 107.234 174.688C107.234 173.744 106.354 173.12 105.042 173.12C103.73 173.12 102.866 173.744 102.866 174.688ZM108.482 174.688C108.482 176.24 107.09 177.232 105.042 177.232C102.994 177.232 101.618 176.24 101.618 174.688C101.618 173.12 102.994 172.128 105.042 172.128C107.09 172.128 108.482 173.12 108.482 174.688ZM104.178 179.328V181.936H110.61V179.328H104.178ZM102.898 182.992V178.288H111.906V182.992H102.898ZM114.034 172.656V173.744H111.906V177.472H110.594V168.848H111.906V172.656H114.034ZM115.825 170.544H119.009C119.009 173.616 118.609 176.992 116.545 179.776L115.521 179.2C117.297 176.912 117.793 174.288 117.889 171.616H115.825V170.544ZM123.825 174.464V169.2H125.057V182.448H123.825V175.536H121.825C121.489 177.328 120.881 179.136 119.729 180.704L118.705 180.112C120.657 177.552 120.993 174.32 121.041 171.616H119.489V170.544H122.177C122.177 171.728 122.145 173.072 121.985 174.464H123.825ZM126.481 168.832H127.729V183.168H126.481V168.832ZM140.266 170.048C137.978 170.048 136.57 170.656 136.57 171.664C136.57 172.688 137.978 173.28 140.266 173.28C142.554 173.28 143.962 172.688 143.962 171.664C143.962 170.656 142.554 170.048 140.266 170.048ZM140.266 174.304C137.146 174.304 135.226 173.344 135.226 171.664C135.226 170 137.146 169.04 140.266 169.04C143.386 169.04 145.306 170 145.306 171.664C145.306 173.344 143.386 174.304 140.266 174.304ZM140.938 178.704V179.152C140.938 180.72 143.146 181.872 145.77 182.128L145.338 183.136C143.098 182.864 141.098 182.016 140.266 180.656C139.386 182 137.402 182.88 135.162 183.136L134.73 182.128C137.322 181.856 139.578 180.688 139.578 179.152V178.704H140.938ZM133.786 175.392H146.794V176.464H140.906V178.048H139.61V176.464H133.786V175.392ZM158.632 171.696V171.344H149.88V170.272H159.944V171.696C159.944 173.472 159.944 175.44 159.4 178.336L158.088 178.192C158.632 175.44 158.632 173.424 158.632 171.696ZM154.872 180.096H161.496V181.168H148.52V180.096H153.56V174.96H154.872V180.096ZM163.575 185.04L163.223 184.176C164.231 183.728 164.823 182.944 164.823 182C164.759 182.016 164.711 182.016 164.647 182.016C164.087 182.016 163.575 181.664 163.575 180.992C163.575 180.368 164.087 179.968 164.679 179.968C165.447 179.968 165.911 180.624 165.911 181.696C165.911 183.232 165.015 184.432 163.575 185.04ZM172.694 179.712V178.656H182.63V183.2H181.318V179.712H172.694ZM174.198 170.464V173.248H181.27V170.464H174.198ZM178.406 176.112H184.23V177.168H171.238V176.112H177.094V174.288H172.918V169.424H182.566V174.288H178.406V176.112ZM193.605 172.912H196.469V168.832H197.797V177.536H196.469V174H193.605V172.912ZM194.469 175.904L193.845 176.928C192.197 176.416 190.901 175.344 190.245 173.952C189.637 175.52 188.341 176.736 186.645 177.296L186.005 176.288C188.117 175.568 189.557 173.824 189.557 171.888V171.616H186.373V170.56H189.557V168.752H190.869V170.56H194.037V171.616H190.869V171.888C190.869 173.68 192.357 175.28 194.469 175.904ZM193.045 182.144C195.221 182.144 196.533 181.536 196.533 180.528C196.533 179.536 195.237 178.928 193.045 178.928C190.885 178.928 189.589 179.536 189.589 180.528C189.589 181.536 190.885 182.144 193.045 182.144ZM193.045 177.904C196.021 177.904 197.845 178.864 197.845 180.528C197.845 182.208 196.021 183.168 193.045 183.168C190.101 183.168 188.277 182.208 188.277 180.528C188.277 178.864 190.101 177.904 193.045 177.904ZM205.78 177.296L204.836 176.512C206.724 174.992 207.508 173.232 207.668 171.008H205.476V169.952H208.916C208.916 171.008 208.82 172 208.58 172.944H211.14V168.848H212.452V178.656H211.14V174.016H208.228C207.732 175.216 206.948 176.304 205.78 177.296ZM201.172 169.952H204.932C204.932 172.8 204.036 174.832 201.62 176.544L200.772 175.712C202.628 174.464 203.492 173.088 203.684 171.008H201.172V169.952ZM208.468 177.424V177.984C208.468 180.032 210.676 181.616 213.236 182.064L212.692 183.104C210.58 182.688 208.66 181.584 207.812 179.92C206.964 181.584 205.028 182.72 202.884 183.136L202.356 182.096C204.916 181.648 207.156 180.064 207.156 177.984V177.424H208.468ZM218.989 175.808H231.949V176.864H218.989V175.808ZM225.469 178.064C228.541 178.064 230.381 178.976 230.381 180.624C230.381 182.256 228.541 183.184 225.469 183.184C222.413 183.184 220.557 182.256 220.557 180.624C220.557 178.976 222.413 178.064 225.469 178.064ZM225.469 179.072C223.213 179.072 221.885 179.648 221.885 180.624C221.885 181.6 223.213 182.16 225.469 182.16C227.725 182.16 229.053 181.6 229.053 180.624C229.053 179.648 227.725 179.072 225.469 179.072ZM225.469 169.2C228.573 169.2 230.509 170.208 230.509 171.936C230.509 173.648 228.573 174.656 225.469 174.656C222.381 174.656 220.429 173.648 220.429 171.936C220.429 170.208 222.381 169.2 225.469 169.2ZM225.469 170.224C223.197 170.224 221.773 170.864 221.773 171.936C221.773 172.992 223.197 173.632 225.469 173.632C227.741 173.632 229.165 172.992 229.165 171.936C229.165 170.864 227.741 170.224 225.469 170.224ZM241.227 177.312H244.139V168.832H245.451V179.76H244.139V178.288H241.227V177.312ZM238.299 170.384C236.939 170.384 236.011 170.992 236.011 171.904C236.011 172.832 236.939 173.44 238.299 173.44C239.659 173.44 240.587 172.832 240.587 171.904C240.587 170.992 239.659 170.384 238.299 170.384ZM238.299 174.416C236.203 174.416 234.763 173.44 234.763 171.904C234.763 170.4 236.203 169.408 238.299 169.408C240.395 169.408 241.835 170.4 241.835 171.904C241.835 173.44 240.395 174.416 238.299 174.416ZM237.787 179.248V176.48C236.363 176.544 234.987 176.56 233.803 176.56L233.627 175.472C236.283 175.472 239.835 175.44 242.875 175.056L242.987 176C241.723 176.192 240.395 176.336 239.099 176.416V179.248H237.787ZM236.987 181.792H245.819V182.864H235.675V178.688H236.987V181.792ZM252.634 178.896C253.946 178.896 254.89 177.968 254.89 176.688C254.89 175.392 253.946 174.464 252.634 174.464C251.338 174.464 250.394 175.392 250.394 176.688C250.394 177.968 251.338 178.896 252.634 178.896ZM252.634 173.376C254.682 173.376 256.138 174.752 256.138 176.688C256.138 178.64 254.682 179.984 252.634 179.984C250.618 179.984 249.162 178.64 249.162 176.688C249.162 174.752 250.618 173.376 252.634 173.376ZM253.274 169.008V171.136H256.81V172.192H248.346V171.136H251.962V169.008H253.274ZM261.834 174.736V175.84H259.482V183.184H258.17V168.848H259.482V174.736H261.834ZM270.249 176.224H273.657V173.344H270.249V176.224ZM268.953 178.512V171.28H265.001V178.512H268.953ZM273.657 168.832H274.969V183.216H273.657V177.296H270.249V179.552H263.721V170.24H270.249V172.272H273.657V168.832Z" fill="#333A46"/>
</svg>
