<svg width="29" height="29" viewBox="0 0 29 29" fill="none" xmlns="http://www.w3.org/2000/svg">
<mask id="mask0_35_833" style="mask-type:alpha" maskUnits="userSpaceOnUse" x="0" y="0" width="29" height="29">
<rect x="0.25" width="28.75" height="28.75" fill="#D9D9D9"/>
</mask>
<g mask="url(#mask0_35_833)">
<path d="M14.6252 26.3548C12.988 26.3548 11.4407 26.0404 9.98324 25.4115C8.52577 24.7826 7.25298 23.924 6.16488 22.8359C5.07677 21.7478 4.21826 20.475 3.58936 19.0176C2.96045 17.5601 2.646 16.0128 2.646 14.3757C2.646 12.7185 2.96045 11.1662 3.58936 9.71875C4.21826 8.27127 5.07677 7.00347 6.16488 5.91536C7.25298 4.82726 8.52577 3.96875 9.98324 3.33984C11.4407 2.71094 12.988 2.39648 14.6252 2.39648C16.2823 2.39648 17.8346 2.71094 19.2821 3.33984C20.7295 3.96875 21.9973 4.82726 23.0854 5.91536C24.1736 7.00347 25.0321 8.27127 25.661 9.71875C26.2899 11.1662 26.6043 12.7185 26.6043 14.3757C26.6043 16.0128 26.2899 17.5601 25.661 19.0176C25.0321 20.475 24.1736 21.7478 23.0854 22.8359C21.9973 23.924 20.7295 24.7826 19.2821 25.4115C17.8346 26.0404 16.2823 26.3548 14.6252 26.3548ZM14.6252 23.8991C15.1443 23.1803 15.5935 22.4316 15.9728 21.653C16.3522 20.8743 16.6616 20.0458 16.9012 19.1673H12.3491C12.5887 20.0458 12.8982 20.8743 13.2775 21.653C13.6568 22.4316 14.1061 23.1803 14.6252 23.8991ZM11.5106 23.4199C11.1512 22.7611 10.8368 22.0773 10.5672 21.3685C10.2977 20.6597 10.0731 19.926 9.89339 19.1673H6.35954C6.93853 20.1656 7.66227 21.0341 8.53076 21.7728C9.39925 22.5115 10.3925 23.0605 11.5106 23.4199ZM17.7397 23.4199C18.8578 23.0605 19.8511 22.5115 20.7196 21.7728C21.5881 21.0341 22.3118 20.1656 22.8908 19.1673H19.3569C19.1772 19.926 18.9526 20.6597 18.6831 21.3685C18.4136 22.0773 18.0991 22.7611 17.7397 23.4199ZM5.34131 16.7715H9.41423C9.35433 16.3722 9.30941 15.9779 9.27946 15.5885C9.24951 15.1992 9.23454 14.7949 9.23454 14.3757C9.23454 13.9564 9.24951 13.5521 9.27946 13.1628C9.30941 12.7734 9.35433 12.3791 9.41423 11.9798H5.34131C5.24148 12.3791 5.16661 12.7734 5.1167 13.1628C5.06679 13.5521 5.04183 13.9564 5.04183 14.3757C5.04183 14.7949 5.06679 15.1992 5.1167 15.5885C5.16661 15.9779 5.24148 16.3722 5.34131 16.7715ZM11.8101 16.7715H17.4403C17.5002 16.3722 17.5451 15.9779 17.575 15.5885C17.605 15.1992 17.62 14.7949 17.62 14.3757C17.62 13.9564 17.605 13.5521 17.575 13.1628C17.5451 12.7734 17.5002 12.3791 17.4403 11.9798H11.8101C11.7502 12.3791 11.7052 12.7734 11.6753 13.1628C11.6453 13.5521 11.6304 13.9564 11.6304 14.3757C11.6304 14.7949 11.6453 15.1992 11.6753 15.5885C11.7052 15.9779 11.7502 16.3722 11.8101 16.7715ZM19.8361 16.7715H23.909C24.0088 16.3722 24.0837 15.9779 24.1336 15.5885C24.1835 15.1992 24.2085 14.7949 24.2085 14.3757C24.2085 13.9564 24.1835 13.5521 24.1336 13.1628C24.0837 12.7734 24.0088 12.3791 23.909 11.9798H19.8361C19.896 12.3791 19.9409 12.7734 19.9709 13.1628C20.0008 13.5521 20.0158 13.9564 20.0158 14.3757C20.0158 14.7949 20.0008 15.1992 19.9709 15.5885C19.9409 15.9779 19.896 16.3722 19.8361 16.7715ZM19.3569 9.58398H22.8908C22.3118 8.58572 21.5881 7.71723 20.7196 6.97852C19.8511 6.2398 18.8578 5.69076 17.7397 5.33138C18.0991 5.99023 18.4136 6.67405 18.6831 7.38281C18.9526 8.09158 19.1772 8.8253 19.3569 9.58398ZM12.3491 9.58398H16.9012C16.6616 8.70551 16.3522 7.87695 15.9728 7.09831C15.5935 6.31966 15.1443 5.57096 14.6252 4.85221C14.1061 5.57096 13.6568 6.31966 13.2775 7.09831C12.8982 7.87695 12.5887 8.70551 12.3491 9.58398ZM6.35954 9.58398H9.89339C10.0731 8.8253 10.2977 8.09158 10.5672 7.38281C10.8368 6.67405 11.1512 5.99023 11.5106 5.33138C10.3925 5.69076 9.39925 6.2398 8.53076 6.97852C7.66227 7.71723 6.93853 8.58572 6.35954 9.58398Z" fill="white"/>
</g>
</svg>
