<svg width="29" height="29" viewBox="0 0 29 29" fill="none" xmlns="http://www.w3.org/2000/svg">
<mask id="mask0_35_830" style="mask-type:alpha" maskUnits="userSpaceOnUse" x="0" y="0" width="29" height="29">
<rect width="28.75" height="28.75" fill="#D9D9D9"/>
</mask>
<g mask="url(#mask0_35_830)">
<path d="M14.3748 14.3743C13.0571 14.3743 11.9291 13.9052 10.9907 12.9668C10.0524 12.0284 9.58317 10.9004 9.58317 9.58268C9.58317 8.26497 10.0524 7.13694 10.9907 6.19857C11.9291 5.2602 13.0571 4.79102 14.3748 4.79102C15.6925 4.79102 16.8206 5.2602 17.759 6.19857C18.6973 7.13694 19.1665 8.26497 19.1665 9.58268C19.1665 10.9004 18.6973 12.0284 17.759 12.9668C16.8206 13.9052 15.6925 14.3743 14.3748 14.3743ZM4.7915 21.5618V20.6035C4.7915 19.9247 4.9662 19.3008 5.31559 18.7318C5.66498 18.1628 6.12918 17.7285 6.70817 17.429C7.94602 16.8101 9.20383 16.3459 10.4816 16.0365C11.7594 15.727 13.0571 15.5723 14.3748 15.5723C15.6925 15.5723 16.9903 15.727 18.2681 16.0365C19.5458 16.3459 20.8037 16.8101 22.0415 17.429C22.6205 17.7285 23.0847 18.1628 23.4341 18.7318C23.7835 19.3008 23.9582 19.9247 23.9582 20.6035V21.5618C23.9582 22.2207 23.7236 22.7847 23.2544 23.2539C22.7852 23.7231 22.2212 23.9577 21.5623 23.9577H7.18734C6.52848 23.9577 5.96446 23.7231 5.49528 23.2539C5.0261 22.7847 4.7915 22.2207 4.7915 21.5618ZM7.18734 21.5618H21.5623V20.6035C21.5623 20.3839 21.5074 20.1842 21.3976 20.0046C21.2878 19.8249 21.1431 19.6851 20.9634 19.5853C19.8853 19.0462 18.7971 18.6419 17.6991 18.3724C16.601 18.1029 15.4929 17.9681 14.3748 17.9681C13.2568 17.9681 12.1487 18.1029 11.0506 18.3724C9.95253 18.6419 8.86442 19.0462 7.7863 19.5853C7.60661 19.6851 7.46186 19.8249 7.35205 20.0046C7.24224 20.1842 7.18734 20.3839 7.18734 20.6035V21.5618ZM14.3748 11.9785C15.0337 11.9785 15.5977 11.7439 16.0669 11.2747C16.5361 10.8056 16.7707 10.2415 16.7707 9.58268C16.7707 8.92383 16.5361 8.35981 16.0669 7.89063C15.5977 7.42144 15.0337 7.18685 14.3748 7.18685C13.716 7.18685 13.152 7.42144 12.6828 7.89063C12.2136 8.35981 11.979 8.92383 11.979 9.58268C11.979 10.2415 12.2136 10.8056 12.6828 11.2747C13.152 11.7439 13.716 11.9785 14.3748 11.9785Z" fill="white"/>
</g>
</svg>
