<svg width="8" height="9" viewBox="0 0 8 9" fill="none" xmlns="http://www.w3.org/2000/svg">
<path d="M0.495605 7.79891V0.68891C0.495605 0.494272 0.564301 0.33112 0.701692 0.199453C0.839084 0.0677865 0.999374 0.00195312 1.18256 0.00195312C1.23981 0.00195312 1.29992 0.0105401 1.36289 0.027714C1.42586 0.0448879 1.48597 0.0706488 1.54321 0.104997L7.14191 3.66C7.24495 3.72869 7.32224 3.81456 7.37376 3.91761C7.42528 4.02065 7.45104 4.12942 7.45104 4.24391C7.45104 4.3584 7.42528 4.46717 7.37376 4.57021C7.32224 4.67326 7.24495 4.75913 7.14191 4.82782L1.54321 8.38282C1.48597 8.41717 1.42586 8.44293 1.36289 8.4601C1.29992 8.47728 1.23981 8.48587 1.18256 8.48587C0.999374 8.48587 0.839084 8.42003 0.701692 8.28837C0.564301 8.1567 0.495605 7.99355 0.495605 7.79891Z" fill="white"/>
</svg>
