<svg width="9" height="11" viewBox="0 0 9 11" fill="none" xmlns="http://www.w3.org/2000/svg">
<path d="M6.99127 10.0529C6.61344 10.0529 6.29 9.91841 6.02094 9.64935C5.75189 9.38029 5.61736 9.05685 5.61736 8.67902V1.80946C5.61736 1.43163 5.75189 1.10819 6.02094 0.839134C6.29 0.570076 6.61344 0.435547 6.99127 0.435547C7.36909 0.435547 7.69254 0.570076 7.9616 0.839134C8.23065 1.10819 8.36518 1.43163 8.36518 1.80946V8.67902C8.36518 9.05685 8.23065 9.38029 7.9616 9.64935C7.69254 9.91841 7.36909 10.0529 6.99127 10.0529ZM1.49562 10.0529C1.11779 10.0529 0.794349 9.91841 0.525291 9.64935C0.256233 9.38029 0.121704 9.05685 0.121704 8.67902V1.80946C0.121704 1.43163 0.256233 1.10819 0.525291 0.839134C0.794349 0.570076 1.11779 0.435547 1.49562 0.435547C1.87344 0.435547 2.19689 0.570076 2.46594 0.839134C2.735 1.10819 2.86953 1.43163 2.86953 1.80946V8.67902C2.86953 9.05685 2.735 9.38029 2.46594 9.64935C2.19689 9.91841 1.87344 10.0529 1.49562 10.0529Z" fill="white"/>
</svg>
