<svg width="8" height="14" viewBox="0 0 8 14" fill="none" xmlns="http://www.w3.org/2000/svg">
<path d="M2.43861 7.24434L7.48774 12.2935C7.65948 12.4652 7.74248 12.6656 7.73676 12.8946C7.73103 13.1235 7.6423 13.3239 7.47056 13.4956C7.29882 13.6674 7.09846 13.7533 6.86948 13.7533C6.64049 13.7533 6.44013 13.6674 6.26839 13.4956L0.978824 8.22325C0.841433 8.08586 0.73839 7.9313 0.669694 7.75956C0.600998 7.58782 0.56665 7.41608 0.56665 7.24434C0.56665 7.0726 0.600998 6.90086 0.669694 6.72912C0.73839 6.55738 0.841433 6.40282 0.978824 6.26543L6.26839 0.975861C6.44013 0.804122 6.64335 0.721115 6.87806 0.726839C7.11277 0.732564 7.316 0.821296 7.48774 0.993035C7.65948 1.16477 7.74535 1.36514 7.74535 1.59412C7.74535 1.82311 7.65948 2.02347 7.48774 2.19521L2.43861 7.24434Z" fill="white"/>
</svg>
