<svg width="164" height="54" viewBox="0 0 164 54" fill="none" xmlns="http://www.w3.org/2000/svg">
<path d="M19.373 24.7344H3.43164V21.6172H19.373V24.7344ZM23.5977 33.6758H0.669922V30.5449H23.5977V33.6758ZM20.9727 23.668C20.9727 25.1263 20.9316 26.416 20.8496 27.5371C20.7676 28.6582 20.5579 29.9297 20.2207 31.3516L16.2559 31.2695C16.4837 30.3216 16.6523 29.4238 16.7617 28.5762C16.8802 27.7285 16.9531 26.972 16.9805 26.3066C17.0169 25.6413 17.0397 24.8392 17.0488 23.9004V23.668V21.6172H20.9727V23.668ZM20.8223 45.3652H3.32227V36.0957H20.8223V45.3652ZM7.19141 42.207H16.9121V39.1582H7.19141V42.207ZM46.1978 26.6621H25.2252V23.5312H46.1978V26.6621ZM47.2369 43.1914H24.3091V40.0332H47.2369V43.1914ZM37.6392 41.2773H33.7427V36.8887H37.6392V41.2773ZM35.6978 27.5508C37.4478 27.5508 38.9745 27.7467 40.2779 28.1387C41.5813 28.5215 42.5839 29.0866 43.2857 29.834C43.9875 30.5814 44.3384 31.4564 44.3384 32.459C44.3384 33.498 43.9875 34.3913 43.2857 35.1387C42.5839 35.877 41.5813 36.4512 40.2779 36.8613C38.9836 37.2624 37.4569 37.4674 35.6978 37.4766C33.9205 37.4674 32.3755 37.2624 31.063 36.8613C29.7597 36.4512 28.7571 35.877 28.0552 35.1387C27.3534 34.3913 27.0071 33.498 27.0162 32.459C27.0071 31.4473 27.3534 30.5723 28.0552 29.834C28.7571 29.0866 29.7597 28.5215 31.063 28.1387C32.3755 27.7467 33.9205 27.5508 35.6978 27.5508ZM35.6978 30.5996C34.6496 30.6087 33.7838 30.6771 33.1002 30.8047C32.4257 30.9323 31.9153 31.1328 31.5689 31.4062C31.2317 31.6797 31.0676 32.0306 31.0767 32.459C31.0676 32.9056 31.2317 33.2656 31.5689 33.5391C31.9153 33.8034 32.4257 34.0039 33.1002 34.1406C33.7838 34.2682 34.6496 34.332 35.6978 34.332C36.7278 34.332 37.5754 34.2682 38.2408 34.1406C38.9153 34.0039 39.4257 33.8034 39.772 33.5391C40.1184 33.2656 40.2916 32.9056 40.2916 32.459C40.2916 32.0397 40.1184 31.6934 39.772 31.4199C39.4257 31.1374 38.9153 30.9323 38.2408 30.8047C37.5754 30.6771 36.7278 30.6087 35.6978 30.5996ZM37.6392 25.4863H33.7427V20.7422H37.6392V25.4863ZM70.8488 35.9043H47.921V32.7871H70.8488V35.9043ZM61.6613 39.9785H57.7784V34.7559H61.6613V39.9785ZM67.9503 30.9961H50.7374V21.5898H67.9503V30.9961ZM54.5792 27.9473H64.0812V24.625H54.5792V27.9473ZM68.3331 45.2285H50.5187V42.0703H68.3331V45.2285ZM54.4562 43.1094H50.5187V37.8867H54.4562V43.1094ZM81.1852 39.4043H77.2341V35.3164H81.1852V39.4043ZM91.822 45.6113H87.8434V20.5098H91.822V45.6113ZM94.8571 33.8125H90.4411V30.5859H94.8571V33.8125ZM71.2868 38.4062C74.4404 38.4062 77.2386 38.3698 79.6813 38.2969C82.124 38.224 84.4619 38.0326 86.695 37.7227L86.9548 40.5527C85.3233 40.8717 83.6279 41.1087 81.8688 41.2637C80.1097 41.4095 78.4691 41.5007 76.947 41.5371C75.4339 41.5736 73.7158 41.5918 71.7927 41.5918L71.2868 38.4062ZM86.572 26.293H71.7653V23.2305H86.572V26.293ZM79.2438 27.1406C80.4378 27.1406 81.5088 27.3411 82.4567 27.7422C83.4046 28.1432 84.1429 28.7038 84.6716 29.4238C85.2093 30.1348 85.4782 30.9551 85.4782 31.8848C85.4782 32.8053 85.2093 33.6257 84.6716 34.3457C84.1429 35.0566 83.4046 35.6126 82.4567 36.0137C81.5088 36.4056 80.4378 36.6016 79.2438 36.6016C78.0316 36.6016 76.9515 36.4056 76.0036 36.0137C75.0557 35.6126 74.3128 35.0566 73.7751 34.3457C73.2464 33.6257 72.9867 32.8053 72.9958 31.8848C72.9867 30.9551 73.2464 30.1348 73.7751 29.4238C74.3128 28.7038 75.0557 28.1432 76.0036 27.7422C76.9515 27.3411 78.0316 27.1406 79.2438 27.1406ZM79.2438 30.1074C78.7334 30.1165 78.2868 30.1849 77.904 30.3125C77.5303 30.4401 77.2386 30.6406 77.029 30.9141C76.8285 31.1784 76.7328 31.502 76.7419 31.8848C76.7328 32.2676 76.8285 32.5911 77.029 32.8555C77.2386 33.1107 77.5303 33.3066 77.904 33.4434C78.2777 33.571 78.7243 33.6348 79.2438 33.6348C79.736 33.6348 80.1644 33.571 80.529 33.4434C80.9027 33.3066 81.1898 33.1107 81.3903 32.8555C81.5999 32.5911 81.7048 32.2676 81.7048 31.8848C81.7048 31.502 81.5999 31.1784 81.3903 30.9141C81.1898 30.6406 80.9027 30.4401 80.529 30.3125C80.1644 30.1849 79.736 30.1165 79.2438 30.1074ZM81.1852 25.541H77.2341V20.6875H81.1852V25.541ZM117.211 45.6113H113.451V20.5098H117.211V45.6113ZM114.696 33.2246H110.662V30.0527H114.696V33.2246ZM111.729 44.5039H108.01V20.8516H111.729V44.5039ZM102.514 26.5254C102.514 28.7676 102.345 30.8092 102.008 32.6504C101.68 34.4824 101.11 36.1185 100.299 37.5586C99.4879 38.9987 98.3987 40.1289 97.0315 40.9492L94.6116 37.9277C95.842 37.2168 96.8219 36.2826 97.551 35.125C98.2802 33.9583 98.7952 32.6595 99.0959 31.2285C99.3967 29.7975 99.5426 28.2298 99.5334 26.5254V24.3926H102.514V26.5254ZM103.375 26.5254C103.384 28.0931 103.544 29.5423 103.854 30.873C104.164 32.1947 104.683 33.3932 105.412 34.4688C106.151 35.5443 107.135 36.401 108.365 37.0391L106.11 40.0195C104.706 39.2812 103.576 38.2376 102.719 36.8887C101.871 35.5397 101.265 33.9993 100.901 32.2676C100.545 30.5358 100.367 28.6217 100.367 26.5254V24.3926H103.375V26.5254ZM106.957 26.1289H95.5549V22.998H106.957V26.1289ZM138.841 38.6797H134.889V20.5508H138.841V38.6797ZM142.122 30.4082H137.692V27.1816H142.122V30.4082ZM121.901 31.4883C124.79 31.4883 127.014 31.4382 128.573 31.3379C130.132 31.2376 131.626 31.0371 133.057 30.7363L133.481 33.8672C132.005 34.1771 130.442 34.3822 128.792 34.4824C127.151 34.5827 124.854 34.6328 121.901 34.6328H119.755V31.4883H121.901ZM131.116 25.623H123.679V33.1699H119.755V22.4922H131.116V25.623ZM139.661 45.2285H122.38V42.0703H139.661V45.2285ZM126.331 43.7109H122.38V36.6973H126.331V43.7109Z" fill="#1E2124"/>
<path d="M135.04 11.4937C135.04 11.8936 135.098 12.308 135.258 12.7005C135.964 14.4453 137.761 15.5213 140.046 14.6125C140.592 14.3944 155.705 8.30951 155.705 8.30951C155.705 8.30951 149.753 23.3873 149.527 23.9471C148.661 26.1063 149.702 28.0619 151.47 28.7162C151.863 28.8616 152.27 28.9343 152.671 28.927C154.119 28.9197 155.392 28.0691 156.018 26.368C156.112 26.1135 163.556 5.69234 163.716 5.20526C163.811 4.91446 163.986 4.23109 163.986 3.75855C163.986 2.74803 163.614 1.79567 162.894 1.07595C162.188 0.363496 161.242 0 160.245 0C159.758 0 159.365 0.087239 158.768 0.276257C158.412 0.392575 139.224 7.52436 137.587 8.13503C135.949 8.74571 135.04 10.0543 135.047 11.4937" fill="#ED1C24"/>
</svg>
