<svg width="149" height="50" viewBox="0 0 149 50" fill="none" xmlns="http://www.w3.org/2000/svg">
<path d="M118.612 12.2274C118.612 12.6527 118.673 13.0936 118.841 13.5112C119.582 15.3674 121.468 16.512 123.865 15.5452C124.438 15.3132 140.296 8.83991 140.296 8.83991C140.296 8.83991 134.05 24.8801 133.814 25.4756C132.905 27.7726 133.997 29.8531 135.852 30.5491C136.265 30.7038 136.692 30.7811 137.112 30.7734C138.631 30.7657 139.968 29.8608 140.624 28.051C140.723 27.7804 148.534 6.05568 148.702 5.53751C148.801 5.22815 148.985 4.50116 148.985 3.99845C148.985 2.92343 148.595 1.91029 147.839 1.14462C147.099 0.386698 146.106 0 145.06 0C144.549 0 144.136 0.0928074 143.51 0.29389C143.136 0.417633 123.002 8.00464 121.284 8.65429C119.566 9.30394 118.612 10.6961 118.62 12.2274" fill="#ED1C24"/>
<path d="M80.8868 24.478V24.0139H68.6781V27.1771H75.7712C73.9235 33.1013 67.3191 36.5816 67.3191 36.5816L69.0828 39.0797C69.0828 39.0797 80.8868 34.1454 80.8868 24.4702V24.478Z" fill="#1D1D1D"/>
<path d="M77.031 45.4835V39.335H72.7019V46.2646C72.7019 48.4301 74.4045 49.9923 76.7409 49.9923H90.1559V46.8369H78.5428C77.4891 46.8369 77.0463 46.4115 77.0234 45.4835H77.031Z" fill="#1D1D1D"/>
<path d="M80.3982 29.8454V33.0085H85.5519V40.6342H89.8811V23.6814H85.5519V29.8454H80.3982Z" fill="#1D1D1D"/>
<path d="M117.704 36.3882H122.033V23.5498H117.704V27.5483H113.191V30.6728H117.704V36.3882Z" fill="#1D1D1D"/>
<path d="M20.5997 39.095H4.12305V46.2643C4.12305 48.4299 5.82569 49.9921 8.16204 49.9921H21.5617V40.0695C21.5617 39.5281 21.1265 39.095 20.5997 39.095ZM17.2326 46.8367H9.96394C8.91029 46.8367 8.45981 46.419 8.44454 45.4832V42.2659H17.2326V46.8367Z" fill="#1D1D1D"/>
<path d="M21.8518 24.0603V23.9133H3.88629V27.0765H17.3242C17.3242 27.2853 17.3242 27.5483 17.3242 27.8035C17.3242 30.7424 17.1791 32.6759 17.1027 33.4648H0V36.6279H26.3489V33.4648H20.9585C21.2181 32.4748 21.8594 29.4122 21.8594 24.0603H21.8518Z" fill="#1D1D1D"/>
<path d="M48.7581 40.6883C52.3542 39.8917 55.0113 37.1616 55.0113 33.9288C55.0113 32.1887 54.2401 30.5955 52.9727 29.3658H57.569V26.2026H48.7581V23.2173H44.4366V26.2026H35.6256V29.3658H40.222C38.9545 30.5955 38.1834 32.1809 38.1834 33.9288C38.1834 37.1693 40.8404 39.8917 44.4442 40.6883V43.8901H33.4343V47.0533H59.7756V43.8901H48.7657V40.6883H48.7581ZM42.6271 33.8283C42.6271 31.6705 44.406 29.9072 46.5897 29.9072C48.7733 29.9072 50.5523 31.6628 50.5523 33.8283C50.5523 35.9938 48.7733 37.7494 46.5897 37.7494C44.406 37.7494 42.6271 35.9938 42.6271 33.8283Z" fill="#1D1D1D"/>
<path d="M109.427 36.1174H113.619C113.443 35.0888 111.908 26.7825 107.915 23.9055H103.082L99.3638 36.218H103.708L106.182 27.3549C108.266 29.8297 109.282 35.3054 109.419 36.1174H109.427Z" fill="#1D1D1D"/>
<path d="M110.29 46.9451C109.19 46.9451 108.992 46.659 108.992 45.7154V45.321H122.04V38.6698C122.04 38.0975 121.628 37.6489 121.04 37.6489H104.739V40.6961H117.894V42.328H104.854V46.2645C104.854 48.5461 106.472 49.9923 108.893 49.9923H122.323V46.9451H110.29Z" fill="#1D1D1D"/>
</svg>
