<svg width="89" height="45" viewBox="0 0 89 45" fill="none" xmlns="http://www.w3.org/2000/svg">
<path d="M87.3095 29.8801C86.1717 24.527 84.7567 19.2237 83.1683 13.986C81.81 9.50949 78.173 -3.68616 71.1324 0.986907C67.3253 3.51373 65.6455 9.64363 64.1233 13.6522C63.43 15.4803 62.7776 17.3333 62.1693 19.205C66.3609 23.3758 68.4221 29.721 66.6792 35.436C65.7653 38.4339 63.285 40.7236 60.3225 42.1399C61.0883 42.7201 62.0716 43.16 63.3134 43.4438C68.961 44.7291 74.9143 45.2719 80.6974 44.8695C84.8103 44.5825 88.5228 43.0227 88.7214 38.4401C88.8443 35.592 87.8263 32.3227 87.3095 29.8832V29.8801Z" fill="#6A8338"/>
<path d="M41.0096 22.2027C42.0496 20.5618 43.4615 19.13 45.0846 18.0007C45.0058 16.9057 44.9144 15.8139 44.8167 14.7283C44.5866 12.2295 44.5646 9.58416 43.4521 7.2757C42.2356 4.75823 39.6292 3.74438 36.9346 3.41995C33.3891 2.99257 28.6964 3.16726 25.4755 4.85182C23.2883 5.99669 22.4121 8.25211 21.848 10.5263C21.3532 12.529 20.9435 14.5536 20.6189 16.5906C21.2366 17.7355 21.744 18.9178 22.2136 19.8849C24.0919 23.7625 25.6646 27.7867 26.9126 31.9076C26.9914 32.1696 27.0733 32.4379 27.1584 32.7155C27.8549 35.024 28.6176 37.841 27.5902 40.0153C26.9 41.4752 25.5952 42.3019 24.1298 42.801C24.4292 42.9632 24.7475 43.113 25.0878 43.2378C26.4462 43.74 27.899 43.9334 29.333 44.158C31.744 44.5324 34.1833 45.0034 36.6068 44.7258C40.0767 44.3296 42.0748 42.3799 43.2661 39.7376C38.6995 35.3578 37.1993 28.2047 41.0096 22.1996V22.2027Z" fill="#A5B747"/>
<path d="M20.2974 36.3968C19.4402 29.8333 19.5789 23.1388 20.6189 16.594C19.5001 14.5195 18.022 12.5666 15.7718 12.2422C11.8008 11.6745 9.35517 13.9174 7.57453 17.2148C4.85472 22.2559 2.64231 27.5747 1.13901 33.0963C0.508697 35.4048 -0.673144 38.2467 0.496091 40.5333C1.48253 42.4643 3.69494 43.3565 5.73401 43.7028C10.9373 44.5918 17.4169 44.2425 22.5729 43.2099C23.0992 43.1038 23.6224 42.9728 24.1298 42.8012C21.7629 41.5097 20.6504 39.0983 20.2974 36.3968Z" fill="#446A37"/>
<path d="M27.5871 40.0189C28.6145 37.8445 27.855 35.0245 27.1553 32.7191C27.0702 32.4415 26.9883 32.1732 26.9095 31.9112C25.6615 27.7903 24.0888 23.7692 22.2105 19.8885C21.7409 18.9214 21.2335 17.7391 20.6158 16.5942C19.5758 23.139 19.4371 29.8336 20.2943 36.3971C20.6473 39.0986 21.7567 41.51 24.1266 42.8015C25.5921 42.3055 26.8969 41.4757 27.5871 40.0157V40.0189Z" fill="#3A562E"/>
<path d="M58.3464 35.7391C59.0839 30.1426 60.4265 24.5992 62.1693 19.2055C62.1157 19.1525 62.0621 19.0964 62.0086 19.0433C61.2931 18.3508 60.5179 17.7206 59.689 17.1654C55.1759 14.1456 49.3802 15.016 45.0877 18.0014C45.2863 20.7435 45.4061 23.5011 45.3682 26.2495C45.321 29.4345 45.0594 32.6102 44.4637 35.7485C44.1927 37.1679 43.8145 38.528 43.2693 39.7384C45.488 41.8659 48.4284 43.3414 51.8416 43.7095C54.5267 43.9965 57.6279 43.4288 60.3256 42.1373C58.5229 40.7678 57.9714 38.5997 58.3464 35.736V35.7391Z" fill="#6DA342"/>
<path d="M66.6791 35.436C68.422 29.721 66.3608 23.3759 62.1692 19.2051C60.4233 24.5988 59.0807 30.1422 58.3464 35.7386C57.9682 38.6024 58.5229 40.7705 60.3256 42.1399C63.288 40.7237 65.7683 38.4339 66.6823 35.436H66.6791Z" fill="#436936"/>
<path d="M45.3651 26.2486C45.406 23.5002 45.2863 20.7426 45.0846 18.0005C43.4584 19.1298 42.0496 20.5616 41.0096 22.2025C37.1962 28.2076 38.6963 35.3607 43.2661 39.7406C43.8145 38.5271 44.1895 37.1701 44.4606 35.7507C45.0594 32.6124 45.3209 29.4367 45.3651 26.2517V26.2486Z" fill="#53843C"/>
</svg>
